<mxfile host="Electron" modified="2024-04-24T15:43:12.109Z" agent="Mozilla/5.0 (Macintosh; Intel Mac OS X 10_15_7) AppleWebKit/537.36 (KHTML, like Gecko) draw.io/24.1.0 Chrome/120.0.6099.109 Electron/28.1.0 Safari/537.36" etag="z4gbWSBpQk_yNqmpNHlp" version="24.1.0" type="device" pages="3">
  <diagram name="@rtus Account" id="Vmj3-iElVKvDOlGkBP9f">
    <mxGraphModel dx="1420" dy="790" grid="1" gridSize="10" guides="1" tooltips="1" connect="1" arrows="1" fold="1" page="1" pageScale="1" pageWidth="1654" pageHeight="1169" math="0" shadow="0">
      <root>
        <mxCell id="0" />
        <mxCell id="1" parent="0" />
        <mxCell id="cykdBwdM0Bds0NIfHY12-3" value="Identity" style="rounded=0;whiteSpace=wrap;html=1;strokeColor=#7030A0;fontColor=#7030A0;fontStyle=1;verticalAlign=middle;align=left;spacingLeft=3;" parent="1" vertex="1">
          <mxGeometry x="7" y="9" width="200" height="30" as="geometry" />
        </mxCell>
        <mxCell id="cykdBwdM0Bds0NIfHY12-5" value="" style="rounded=0;whiteSpace=wrap;html=1;strokeColor=#7030A0;fillColor=#f5f5f5;fontColor=#333333;" parent="1" vertex="1">
          <mxGeometry x="7" y="39" width="200" height="471" as="geometry" />
        </mxCell>
        <mxCell id="cykdBwdM0Bds0NIfHY12-6" value="User Login" style="rounded=0;whiteSpace=wrap;html=1;strokeColor=#FFFFFF;fillColor=#7030A0;fontColor=#FFFFFF;align=left;spacingLeft=3;" parent="1" vertex="1">
          <mxGeometry x="14.873999999999995" y="106.08999999999997" width="180" height="30" as="geometry" />
        </mxCell>
        <mxCell id="cykdBwdM0Bds0NIfHY12-7" value="Password" style="rounded=0;whiteSpace=wrap;html=1;strokeColor=#FFFFFF;fillColor=#7030A0;fontColor=#FFFFFF;align=left;spacingLeft=3;" parent="1" vertex="1">
          <mxGeometry x="14.873999999999995" y="136.08999999999997" width="180" height="30" as="geometry" />
        </mxCell>
        <mxCell id="cykdBwdM0Bds0NIfHY12-8" value="uniqueIdentifier" style="rounded=0;whiteSpace=wrap;html=1;strokeColor=#FFFFFF;fillColor=#7030A0;fontColor=#FFFFFF;align=left;spacingLeft=3;" parent="1" vertex="1">
          <mxGeometry x="14.873999999999995" y="196.09" width="180" height="30" as="geometry" />
        </mxCell>
        <mxCell id="cykdBwdM0Bds0NIfHY12-9" value="Title" style="rounded=0;whiteSpace=wrap;html=1;strokeColor=#FFFFFF;fillColor=#7030A0;fontColor=#FFFFFF;align=left;spacingLeft=3;" parent="1" vertex="1">
          <mxGeometry x="14.873999999999995" y="226.09" width="180" height="30" as="geometry" />
        </mxCell>
        <mxCell id="cykdBwdM0Bds0NIfHY12-10" value="@rtus Account" style="rounded=0;whiteSpace=wrap;html=1;strokeColor=#5B9BD5;fontColor=#5B9BD5;fontStyle=1;verticalAlign=middle;align=left;spacingLeft=3;" parent="1" vertex="1">
          <mxGeometry x="250" y="9" width="490" height="30" as="geometry" />
        </mxCell>
        <mxCell id="cykdBwdM0Bds0NIfHY12-11" value="" style="rounded=0;whiteSpace=wrap;html=1;strokeColor=#5B9BD5;fillColor=#f5f5f5;fontColor=#333333;" parent="1" vertex="1">
          <mxGeometry x="250" y="39" width="490" height="471" as="geometry" />
        </mxCell>
        <mxCell id="cykdBwdM0Bds0NIfHY12-13" value="" style="shape=table;startSize=0;container=1;collapsible=0;childLayout=tableLayout;fillColor=#5B9BD5;strokeColor=#5B9BD5;fontColor=#FFFFFF;spacingRight=3;spacingLeft=3;" parent="1" vertex="1">
          <mxGeometry x="260" y="46.09000000000003" width="470" height="450" as="geometry" />
        </mxCell>
        <mxCell id="cykdBwdM0Bds0NIfHY12-14" value="" style="shape=tableRow;horizontal=0;startSize=0;swimlaneHead=0;swimlaneBody=0;strokeColor=inherit;top=0;left=0;bottom=0;right=0;collapsible=0;dropTarget=0;fillColor=none;points=[[0,0.5],[1,0.5]];portConstraint=eastwest;fontColor=#FFFFFF;" parent="cykdBwdM0Bds0NIfHY12-13" vertex="1">
          <mxGeometry width="470" height="30" as="geometry" />
        </mxCell>
        <mxCell id="cykdBwdM0Bds0NIfHY12-15" value="2" style="shape=partialRectangle;html=1;whiteSpace=wrap;connectable=0;overflow=hidden;fillColor=none;top=0;left=0;bottom=0;right=0;pointerEvents=1;align=right;spacingLeft=3;fontColor=#FFFFFF;" parent="cykdBwdM0Bds0NIfHY12-14" vertex="1">
          <mxGeometry width="24" height="30" as="geometry">
            <mxRectangle width="24" height="30" as="alternateBounds" />
          </mxGeometry>
        </mxCell>
        <mxCell id="cykdBwdM0Bds0NIfHY12-16" value="Service" style="shape=partialRectangle;html=1;whiteSpace=wrap;connectable=0;strokeColor=#BD0100;overflow=hidden;fillColor=none;top=0;left=0;bottom=0;right=0;pointerEvents=1;align=left;spacingLeft=3;fontColor=#FFFFFF;" parent="cykdBwdM0Bds0NIfHY12-14" vertex="1">
          <mxGeometry x="24" width="156" height="30" as="geometry">
            <mxRectangle width="156" height="30" as="alternateBounds" />
          </mxGeometry>
        </mxCell>
        <mxCell id="cykdBwdM0Bds0NIfHY12-17" value="UD_ARTx_USR_SERVER" style="shape=partialRectangle;html=1;whiteSpace=wrap;connectable=0;strokeColor=#BD0100;overflow=hidden;fillColor=none;top=0;left=0;bottom=0;right=0;pointerEvents=1;align=left;spacingLeft=3;fontColor=#FFFFFF;" parent="cykdBwdM0Bds0NIfHY12-14" vertex="1">
          <mxGeometry x="180" width="190" height="30" as="geometry">
            <mxRectangle width="190" height="30" as="alternateBounds" />
          </mxGeometry>
        </mxCell>
        <mxCell id="cykdBwdM0Bds0NIfHY12-18" value="long" style="shape=partialRectangle;html=1;whiteSpace=wrap;connectable=0;strokeColor=#BD0100;overflow=hidden;fillColor=none;top=0;left=0;bottom=0;right=0;pointerEvents=1;align=left;spacingLeft=3;fontColor=#FFFFFF;" parent="cykdBwdM0Bds0NIfHY12-14" vertex="1">
          <mxGeometry x="370" width="45" height="30" as="geometry">
            <mxRectangle width="45" height="30" as="alternateBounds" />
          </mxGeometry>
        </mxCell>
        <mxCell id="cykdBwdM0Bds0NIfHY12-29" style="shape=partialRectangle;html=1;whiteSpace=wrap;connectable=0;strokeColor=#BD0100;overflow=hidden;fillColor=none;top=0;left=0;bottom=0;right=0;pointerEvents=1;align=left;spacingLeft=3;fontColor=#FFFFFF;" parent="cykdBwdM0Bds0NIfHY12-14" vertex="1">
          <mxGeometry x="415" width="55" height="30" as="geometry">
            <mxRectangle width="55" height="30" as="alternateBounds" />
          </mxGeometry>
        </mxCell>
        <mxCell id="cykdBwdM0Bds0NIfHY12-24" style="shape=tableRow;horizontal=0;startSize=0;swimlaneHead=0;swimlaneBody=0;strokeColor=inherit;top=0;left=0;bottom=0;right=0;collapsible=0;dropTarget=0;fillColor=none;points=[[0,0.5],[1,0.5]];portConstraint=eastwest;fontColor=#FFFFFF;" parent="cykdBwdM0Bds0NIfHY12-13" vertex="1">
          <mxGeometry y="30" width="470" height="30" as="geometry" />
        </mxCell>
        <mxCell id="cykdBwdM0Bds0NIfHY12-25" value="4" style="shape=partialRectangle;html=1;whiteSpace=wrap;connectable=0;strokeColor=inherit;overflow=hidden;fillColor=none;top=0;left=0;bottom=0;right=0;pointerEvents=1;align=right;spacingLeft=3;fontColor=#FFFFFF;" parent="cykdBwdM0Bds0NIfHY12-24" vertex="1">
          <mxGeometry width="24" height="30" as="geometry">
            <mxRectangle width="24" height="30" as="alternateBounds" />
          </mxGeometry>
        </mxCell>
        <mxCell id="cykdBwdM0Bds0NIfHY12-26" value="Identifier" style="shape=partialRectangle;html=1;whiteSpace=wrap;connectable=0;strokeColor=inherit;overflow=hidden;fillColor=none;top=0;left=0;bottom=0;right=0;pointerEvents=1;align=left;spacingLeft=3;fontColor=#FFFFFF;" parent="cykdBwdM0Bds0NIfHY12-24" vertex="1">
          <mxGeometry x="24" width="156" height="30" as="geometry">
            <mxRectangle width="156" height="30" as="alternateBounds" />
          </mxGeometry>
        </mxCell>
        <mxCell id="cykdBwdM0Bds0NIfHY12-27" value="UD_ARTx_USR_SID" style="shape=partialRectangle;html=1;whiteSpace=wrap;connectable=0;strokeColor=inherit;overflow=hidden;fillColor=none;top=0;left=0;bottom=0;right=0;pointerEvents=1;align=left;spacingLeft=3;fontColor=#FFFFFF;" parent="cykdBwdM0Bds0NIfHY12-24" vertex="1">
          <mxGeometry x="180" width="190" height="30" as="geometry">
            <mxRectangle width="190" height="30" as="alternateBounds" />
          </mxGeometry>
        </mxCell>
        <mxCell id="cykdBwdM0Bds0NIfHY12-28" value="String" style="shape=partialRectangle;html=1;whiteSpace=wrap;connectable=0;strokeColor=inherit;overflow=hidden;fillColor=none;top=0;left=0;bottom=0;right=0;pointerEvents=1;align=left;spacingLeft=3;fontColor=#FFFFFF;" parent="cykdBwdM0Bds0NIfHY12-24" vertex="1">
          <mxGeometry x="370" width="45" height="30" as="geometry">
            <mxRectangle width="45" height="30" as="alternateBounds" />
          </mxGeometry>
        </mxCell>
        <mxCell id="cykdBwdM0Bds0NIfHY12-30" value="64" style="shape=partialRectangle;whiteSpace=wrap;connectable=0;strokeColor=inherit;overflow=hidden;fillColor=none;top=0;left=0;bottom=0;right=0;pointerEvents=1;align=right;spacingLeft=3;fontColor=#FFFFFF;spacingRight=3;" parent="cykdBwdM0Bds0NIfHY12-24" vertex="1">
          <mxGeometry x="415" width="55" height="30" as="geometry">
            <mxRectangle width="55" height="30" as="alternateBounds" />
          </mxGeometry>
        </mxCell>
        <mxCell id="cykdBwdM0Bds0NIfHY12-31" style="shape=tableRow;horizontal=0;startSize=0;swimlaneHead=0;swimlaneBody=0;strokeColor=inherit;top=0;left=0;bottom=0;right=0;collapsible=0;dropTarget=0;fillColor=none;points=[[0,0.5],[1,0.5]];portConstraint=eastwest;fontColor=#FFFFFF;" parent="cykdBwdM0Bds0NIfHY12-13" vertex="1">
          <mxGeometry y="60" width="470" height="30" as="geometry" />
        </mxCell>
        <mxCell id="cykdBwdM0Bds0NIfHY12-32" value="6" style="shape=partialRectangle;html=1;whiteSpace=wrap;connectable=0;strokeColor=inherit;overflow=hidden;fillColor=none;top=0;left=0;bottom=0;right=0;pointerEvents=1;align=right;spacingLeft=3;fontColor=#FFFFFF;" parent="cykdBwdM0Bds0NIfHY12-31" vertex="1">
          <mxGeometry width="24" height="30" as="geometry">
            <mxRectangle width="24" height="30" as="alternateBounds" />
          </mxGeometry>
        </mxCell>
        <mxCell id="cykdBwdM0Bds0NIfHY12-33" value="User Name" style="shape=partialRectangle;html=1;whiteSpace=wrap;connectable=0;strokeColor=inherit;overflow=hidden;fillColor=none;top=0;left=0;bottom=0;right=0;pointerEvents=1;align=left;spacingLeft=3;fontColor=#FFFFFF;" parent="cykdBwdM0Bds0NIfHY12-31" vertex="1">
          <mxGeometry x="24" width="156" height="30" as="geometry">
            <mxRectangle width="156" height="30" as="alternateBounds" />
          </mxGeometry>
        </mxCell>
        <mxCell id="cykdBwdM0Bds0NIfHY12-34" value="UD_ARTx_USR_UID" style="shape=partialRectangle;html=1;whiteSpace=wrap;connectable=0;strokeColor=inherit;overflow=hidden;fillColor=none;top=0;left=0;bottom=0;right=0;pointerEvents=1;align=left;spacingLeft=3;fontColor=#FFFFFF;" parent="cykdBwdM0Bds0NIfHY12-31" vertex="1">
          <mxGeometry x="180" width="190" height="30" as="geometry">
            <mxRectangle width="190" height="30" as="alternateBounds" />
          </mxGeometry>
        </mxCell>
        <mxCell id="cykdBwdM0Bds0NIfHY12-35" value="String" style="shape=partialRectangle;html=1;whiteSpace=wrap;connectable=0;strokeColor=inherit;overflow=hidden;fillColor=none;top=0;left=0;bottom=0;right=0;pointerEvents=1;align=left;spacingLeft=3;fontColor=#FFFFFF;" parent="cykdBwdM0Bds0NIfHY12-31" vertex="1">
          <mxGeometry x="370" width="45" height="30" as="geometry">
            <mxRectangle width="45" height="30" as="alternateBounds" />
          </mxGeometry>
        </mxCell>
        <mxCell id="cykdBwdM0Bds0NIfHY12-36" value="256" style="shape=partialRectangle;html=1;whiteSpace=wrap;connectable=0;strokeColor=inherit;overflow=hidden;fillColor=none;top=0;left=0;bottom=0;right=0;pointerEvents=1;align=right;spacingLeft=3;fontColor=#FFFFFF;spacingRight=3;" parent="cykdBwdM0Bds0NIfHY12-31" vertex="1">
          <mxGeometry x="415" width="55" height="30" as="geometry">
            <mxRectangle width="55" height="30" as="alternateBounds" />
          </mxGeometry>
        </mxCell>
        <mxCell id="cykdBwdM0Bds0NIfHY12-37" style="shape=tableRow;horizontal=0;startSize=0;swimlaneHead=0;swimlaneBody=0;strokeColor=inherit;top=0;left=0;bottom=0;right=0;collapsible=0;dropTarget=0;fillColor=none;points=[[0,0.5],[1,0.5]];portConstraint=eastwest;fontColor=#FFFFFF;" parent="cykdBwdM0Bds0NIfHY12-13" vertex="1">
          <mxGeometry y="90" width="470" height="30" as="geometry" />
        </mxCell>
        <mxCell id="cykdBwdM0Bds0NIfHY12-38" value="8" style="shape=partialRectangle;html=1;whiteSpace=wrap;connectable=0;strokeColor=inherit;overflow=hidden;fillColor=none;top=0;left=0;bottom=0;right=0;pointerEvents=1;align=right;spacingLeft=3;fontColor=#FFFFFF;" parent="cykdBwdM0Bds0NIfHY12-37" vertex="1">
          <mxGeometry width="24" height="30" as="geometry">
            <mxRectangle width="24" height="30" as="alternateBounds" />
          </mxGeometry>
        </mxCell>
        <mxCell id="cykdBwdM0Bds0NIfHY12-39" value="Password" style="shape=partialRectangle;html=1;whiteSpace=wrap;connectable=0;strokeColor=inherit;overflow=hidden;fillColor=none;top=0;left=0;bottom=0;right=0;pointerEvents=1;align=left;spacingLeft=3;fontColor=#FFFFFF;" parent="cykdBwdM0Bds0NIfHY12-37" vertex="1">
          <mxGeometry x="24" width="156" height="30" as="geometry">
            <mxRectangle width="156" height="30" as="alternateBounds" />
          </mxGeometry>
        </mxCell>
        <mxCell id="cykdBwdM0Bds0NIfHY12-40" value="UD_ARTx_USR_PASSWORD" style="shape=partialRectangle;html=1;whiteSpace=wrap;connectable=0;strokeColor=inherit;overflow=hidden;fillColor=none;top=0;left=0;bottom=0;right=0;pointerEvents=1;align=left;spacingLeft=3;fontColor=#FFFFFF;" parent="cykdBwdM0Bds0NIfHY12-37" vertex="1">
          <mxGeometry x="180" width="190" height="30" as="geometry">
            <mxRectangle width="190" height="30" as="alternateBounds" />
          </mxGeometry>
        </mxCell>
        <mxCell id="cykdBwdM0Bds0NIfHY12-41" value="String" style="shape=partialRectangle;html=1;whiteSpace=wrap;connectable=0;strokeColor=inherit;overflow=hidden;fillColor=none;top=0;left=0;bottom=0;right=0;pointerEvents=1;align=left;spacingLeft=3;fontColor=#FFFFFF;" parent="cykdBwdM0Bds0NIfHY12-37" vertex="1">
          <mxGeometry x="370" width="45" height="30" as="geometry">
            <mxRectangle width="45" height="30" as="alternateBounds" />
          </mxGeometry>
        </mxCell>
        <mxCell id="cykdBwdM0Bds0NIfHY12-42" value="32" style="shape=partialRectangle;html=1;whiteSpace=wrap;connectable=0;strokeColor=inherit;overflow=hidden;fillColor=none;top=0;left=0;bottom=0;right=0;pointerEvents=1;align=right;spacingLeft=3;fontColor=#FFFFFF;spacingRight=3;" parent="cykdBwdM0Bds0NIfHY12-37" vertex="1">
          <mxGeometry x="415" width="55" height="30" as="geometry">
            <mxRectangle width="55" height="30" as="alternateBounds" />
          </mxGeometry>
        </mxCell>
        <mxCell id="cykdBwdM0Bds0NIfHY12-43" style="shape=tableRow;horizontal=0;startSize=0;swimlaneHead=0;swimlaneBody=0;strokeColor=inherit;top=0;left=0;bottom=0;right=0;collapsible=0;dropTarget=0;fillColor=none;points=[[0,0.5],[1,0.5]];portConstraint=eastwest;fontColor=#FFFFFF;" parent="cykdBwdM0Bds0NIfHY12-13" vertex="1">
          <mxGeometry y="120" width="470" height="30" as="geometry" />
        </mxCell>
        <mxCell id="cykdBwdM0Bds0NIfHY12-44" value="10" style="shape=partialRectangle;html=1;whiteSpace=wrap;connectable=0;strokeColor=inherit;overflow=hidden;fillColor=none;top=0;left=0;bottom=0;right=0;pointerEvents=1;align=right;spacingLeft=3;fontColor=#FFFFFF;" parent="cykdBwdM0Bds0NIfHY12-43" vertex="1">
          <mxGeometry width="24" height="30" as="geometry">
            <mxRectangle width="24" height="30" as="alternateBounds" />
          </mxGeometry>
        </mxCell>
        <mxCell id="cykdBwdM0Bds0NIfHY12-45" value="Status" style="shape=partialRectangle;html=1;whiteSpace=wrap;connectable=0;strokeColor=inherit;overflow=hidden;fillColor=none;top=0;left=0;bottom=0;right=0;pointerEvents=1;align=left;spacingLeft=3;fontColor=#FFFFFF;" parent="cykdBwdM0Bds0NIfHY12-43" vertex="1">
          <mxGeometry x="24" width="156" height="30" as="geometry">
            <mxRectangle width="156" height="30" as="alternateBounds" />
          </mxGeometry>
        </mxCell>
        <mxCell id="cykdBwdM0Bds0NIfHY12-46" value="[Account Status]" style="shape=partialRectangle;html=1;whiteSpace=wrap;connectable=0;strokeColor=inherit;overflow=hidden;fillColor=none;top=0;left=0;bottom=0;right=0;pointerEvents=1;align=left;spacingLeft=3;fontColor=#FFFFFF;" parent="cykdBwdM0Bds0NIfHY12-43" vertex="1">
          <mxGeometry x="180" width="190" height="30" as="geometry">
            <mxRectangle width="190" height="30" as="alternateBounds" />
          </mxGeometry>
        </mxCell>
        <mxCell id="cykdBwdM0Bds0NIfHY12-47" value="Boolean" style="shape=partialRectangle;html=1;whiteSpace=wrap;connectable=0;strokeColor=inherit;overflow=hidden;fillColor=none;top=0;left=0;bottom=0;right=0;pointerEvents=1;align=left;spacingLeft=3;fontColor=#FFFFFF;" parent="cykdBwdM0Bds0NIfHY12-43" vertex="1">
          <mxGeometry x="370" width="45" height="30" as="geometry">
            <mxRectangle width="45" height="30" as="alternateBounds" />
          </mxGeometry>
        </mxCell>
        <mxCell id="cykdBwdM0Bds0NIfHY12-48" value="" style="shape=partialRectangle;html=1;whiteSpace=wrap;connectable=0;strokeColor=inherit;overflow=hidden;fillColor=none;top=0;left=0;bottom=0;right=0;pointerEvents=1;align=right;spacingLeft=3;fontColor=#FFFFFF;spacingRight=3;" parent="cykdBwdM0Bds0NIfHY12-43" vertex="1">
          <mxGeometry x="415" width="55" height="30" as="geometry">
            <mxRectangle width="55" height="30" as="alternateBounds" />
          </mxGeometry>
        </mxCell>
        <mxCell id="cykdBwdM0Bds0NIfHY12-49" style="shape=tableRow;horizontal=0;startSize=0;swimlaneHead=0;swimlaneBody=0;strokeColor=inherit;top=0;left=0;bottom=0;right=0;collapsible=0;dropTarget=0;fillColor=none;points=[[0,0.5],[1,0.5]];portConstraint=eastwest;fontColor=#FFFFFF;" parent="cykdBwdM0Bds0NIfHY12-13" vertex="1">
          <mxGeometry y="150" width="470" height="30" as="geometry" />
        </mxCell>
        <mxCell id="cykdBwdM0Bds0NIfHY12-50" value="12" style="shape=partialRectangle;html=1;whiteSpace=wrap;connectable=0;strokeColor=inherit;overflow=hidden;fillColor=none;top=0;left=0;bottom=0;right=0;pointerEvents=1;align=right;spacingLeft=3;fontColor=#FFFFFF;" parent="cykdBwdM0Bds0NIfHY12-49" vertex="1">
          <mxGeometry width="24" height="30" as="geometry">
            <mxRectangle width="24" height="30" as="alternateBounds" />
          </mxGeometry>
        </mxCell>
        <mxCell id="cykdBwdM0Bds0NIfHY12-51" value="Unique Identifier" style="shape=partialRectangle;html=1;whiteSpace=wrap;connectable=0;strokeColor=inherit;overflow=hidden;fillColor=none;top=0;left=0;bottom=0;right=0;pointerEvents=1;align=left;spacingLeft=3;fontColor=#FFFFFF;" parent="cykdBwdM0Bds0NIfHY12-49" vertex="1">
          <mxGeometry x="24" width="156" height="30" as="geometry">
            <mxRectangle width="156" height="30" as="alternateBounds" />
          </mxGeometry>
        </mxCell>
        <mxCell id="cykdBwdM0Bds0NIfHY12-52" value="UD_ARTx_USR_UID" style="shape=partialRectangle;html=1;whiteSpace=wrap;connectable=0;strokeColor=inherit;overflow=hidden;fillColor=none;top=0;left=0;bottom=0;right=0;pointerEvents=1;align=left;spacingLeft=3;fontColor=#FFFFFF;" parent="cykdBwdM0Bds0NIfHY12-49" vertex="1">
          <mxGeometry x="180" width="190" height="30" as="geometry">
            <mxRectangle width="190" height="30" as="alternateBounds" />
          </mxGeometry>
        </mxCell>
        <mxCell id="cykdBwdM0Bds0NIfHY12-53" value="String" style="shape=partialRectangle;html=1;whiteSpace=wrap;connectable=0;strokeColor=inherit;overflow=hidden;fillColor=none;top=0;left=0;bottom=0;right=0;pointerEvents=1;align=left;spacingLeft=3;fontColor=#FFFFFF;" parent="cykdBwdM0Bds0NIfHY12-49" vertex="1">
          <mxGeometry x="370" width="45" height="30" as="geometry">
            <mxRectangle width="45" height="30" as="alternateBounds" />
          </mxGeometry>
        </mxCell>
        <mxCell id="cykdBwdM0Bds0NIfHY12-54" value="64" style="shape=partialRectangle;html=1;whiteSpace=wrap;connectable=0;strokeColor=inherit;overflow=hidden;fillColor=none;top=0;left=0;bottom=0;right=0;pointerEvents=1;align=right;spacingLeft=3;fontColor=#FFFFFF;spacingRight=3;" parent="cykdBwdM0Bds0NIfHY12-49" vertex="1">
          <mxGeometry x="415" width="55" height="30" as="geometry">
            <mxRectangle width="55" height="30" as="alternateBounds" />
          </mxGeometry>
        </mxCell>
        <mxCell id="cykdBwdM0Bds0NIfHY12-55" style="shape=tableRow;horizontal=0;startSize=0;swimlaneHead=0;swimlaneBody=0;strokeColor=inherit;top=0;left=0;bottom=0;right=0;collapsible=0;dropTarget=0;fillColor=none;points=[[0,0.5],[1,0.5]];portConstraint=eastwest;fontColor=#FFFFFF;" parent="cykdBwdM0Bds0NIfHY12-13" vertex="1">
          <mxGeometry y="180" width="470" height="30" as="geometry" />
        </mxCell>
        <mxCell id="cykdBwdM0Bds0NIfHY12-56" value="14" style="shape=partialRectangle;html=1;whiteSpace=wrap;connectable=0;strokeColor=inherit;overflow=hidden;fillColor=none;top=0;left=0;bottom=0;right=0;pointerEvents=1;align=right;spacingLeft=3;fontColor=#FFFFFF;" parent="cykdBwdM0Bds0NIfHY12-55" vertex="1">
          <mxGeometry width="24" height="30" as="geometry">
            <mxRectangle width="24" height="30" as="alternateBounds" />
          </mxGeometry>
        </mxCell>
        <mxCell id="cykdBwdM0Bds0NIfHY12-57" value="Title" style="shape=partialRectangle;html=1;whiteSpace=wrap;connectable=0;strokeColor=inherit;overflow=hidden;fillColor=none;top=0;left=0;bottom=0;right=0;pointerEvents=1;align=left;spacingLeft=3;fontColor=#FFFFFF;" parent="cykdBwdM0Bds0NIfHY12-55" vertex="1">
          <mxGeometry x="24" width="156" height="30" as="geometry">
            <mxRectangle width="156" height="30" as="alternateBounds" />
          </mxGeometry>
        </mxCell>
        <mxCell id="cykdBwdM0Bds0NIfHY12-58" value="UD_ARTx_USR_TITLE" style="shape=partialRectangle;html=1;whiteSpace=wrap;connectable=0;strokeColor=inherit;overflow=hidden;fillColor=none;top=0;left=0;bottom=0;right=0;pointerEvents=1;align=left;spacingLeft=3;fontColor=#FFFFFF;" parent="cykdBwdM0Bds0NIfHY12-55" vertex="1">
          <mxGeometry x="180" width="190" height="30" as="geometry">
            <mxRectangle width="190" height="30" as="alternateBounds" />
          </mxGeometry>
        </mxCell>
        <mxCell id="cykdBwdM0Bds0NIfHY12-59" value="String" style="shape=partialRectangle;html=1;whiteSpace=wrap;connectable=0;strokeColor=inherit;overflow=hidden;fillColor=none;top=0;left=0;bottom=0;right=0;pointerEvents=1;align=left;spacingLeft=3;fontColor=#FFFFFF;" parent="cykdBwdM0Bds0NIfHY12-55" vertex="1">
          <mxGeometry x="370" width="45" height="30" as="geometry">
            <mxRectangle width="45" height="30" as="alternateBounds" />
          </mxGeometry>
        </mxCell>
        <mxCell id="cykdBwdM0Bds0NIfHY12-60" value="30" style="shape=partialRectangle;html=1;whiteSpace=wrap;connectable=0;strokeColor=inherit;overflow=hidden;fillColor=none;top=0;left=0;bottom=0;right=0;pointerEvents=1;align=right;spacingLeft=3;fontColor=#FFFFFF;spacingRight=3;" parent="cykdBwdM0Bds0NIfHY12-55" vertex="1">
          <mxGeometry x="415" width="55" height="30" as="geometry">
            <mxRectangle width="55" height="30" as="alternateBounds" />
          </mxGeometry>
        </mxCell>
        <mxCell id="cykdBwdM0Bds0NIfHY12-61" style="shape=tableRow;horizontal=0;startSize=0;swimlaneHead=0;swimlaneBody=0;strokeColor=inherit;top=0;left=0;bottom=0;right=0;collapsible=0;dropTarget=0;fillColor=none;points=[[0,0.5],[1,0.5]];portConstraint=eastwest;fontColor=#FFFFFF;" parent="cykdBwdM0Bds0NIfHY12-13" vertex="1">
          <mxGeometry y="210" width="470" height="30" as="geometry" />
        </mxCell>
        <mxCell id="cykdBwdM0Bds0NIfHY12-62" value="16" style="shape=partialRectangle;html=1;whiteSpace=wrap;connectable=0;strokeColor=inherit;overflow=hidden;fillColor=none;top=0;left=0;bottom=0;right=0;pointerEvents=1;align=right;spacingLeft=3;fontColor=#FFFFFF;" parent="cykdBwdM0Bds0NIfHY12-61" vertex="1">
          <mxGeometry width="24" height="30" as="geometry">
            <mxRectangle width="24" height="30" as="alternateBounds" />
          </mxGeometry>
        </mxCell>
        <mxCell id="cykdBwdM0Bds0NIfHY12-63" value="Last Name" style="shape=partialRectangle;html=1;whiteSpace=wrap;connectable=0;strokeColor=inherit;overflow=hidden;fillColor=none;top=0;left=0;bottom=0;right=0;pointerEvents=1;align=left;spacingLeft=3;fontColor=#FFFFFF;" parent="cykdBwdM0Bds0NIfHY12-61" vertex="1">
          <mxGeometry x="24" width="156" height="30" as="geometry">
            <mxRectangle width="156" height="30" as="alternateBounds" />
          </mxGeometry>
        </mxCell>
        <mxCell id="cykdBwdM0Bds0NIfHY12-64" value="UD_ARTx_USR_FIRST_NAME" style="shape=partialRectangle;html=1;whiteSpace=wrap;connectable=0;strokeColor=inherit;overflow=hidden;fillColor=none;top=0;left=0;bottom=0;right=0;pointerEvents=1;align=left;spacingLeft=3;fontColor=#FFFFFF;" parent="cykdBwdM0Bds0NIfHY12-61" vertex="1">
          <mxGeometry x="180" width="190" height="30" as="geometry">
            <mxRectangle width="190" height="30" as="alternateBounds" />
          </mxGeometry>
        </mxCell>
        <mxCell id="cykdBwdM0Bds0NIfHY12-65" value="String" style="shape=partialRectangle;html=1;whiteSpace=wrap;connectable=0;strokeColor=inherit;overflow=hidden;fillColor=none;top=0;left=0;bottom=0;right=0;pointerEvents=1;align=left;spacingLeft=3;fontColor=#FFFFFF;" parent="cykdBwdM0Bds0NIfHY12-61" vertex="1">
          <mxGeometry x="370" width="45" height="30" as="geometry">
            <mxRectangle width="45" height="30" as="alternateBounds" />
          </mxGeometry>
        </mxCell>
        <mxCell id="cykdBwdM0Bds0NIfHY12-66" value="80" style="shape=partialRectangle;html=1;whiteSpace=wrap;connectable=0;strokeColor=inherit;overflow=hidden;fillColor=none;top=0;left=0;bottom=0;right=0;pointerEvents=1;align=right;spacingLeft=3;fontColor=#FFFFFF;spacingRight=3;" parent="cykdBwdM0Bds0NIfHY12-61" vertex="1">
          <mxGeometry x="415" width="55" height="30" as="geometry">
            <mxRectangle width="55" height="30" as="alternateBounds" />
          </mxGeometry>
        </mxCell>
        <mxCell id="cykdBwdM0Bds0NIfHY12-67" style="shape=tableRow;horizontal=0;startSize=0;swimlaneHead=0;swimlaneBody=0;strokeColor=inherit;top=0;left=0;bottom=0;right=0;collapsible=0;dropTarget=0;fillColor=none;points=[[0,0.5],[1,0.5]];portConstraint=eastwest;fontColor=#FFFFFF;" parent="cykdBwdM0Bds0NIfHY12-13" vertex="1">
          <mxGeometry y="240" width="470" height="30" as="geometry" />
        </mxCell>
        <mxCell id="cykdBwdM0Bds0NIfHY12-68" value="18" style="shape=partialRectangle;html=1;whiteSpace=wrap;connectable=0;strokeColor=inherit;overflow=hidden;fillColor=none;top=0;left=0;bottom=0;right=0;pointerEvents=1;align=right;spacingLeft=3;fontColor=#FFFFFF;" parent="cykdBwdM0Bds0NIfHY12-67" vertex="1">
          <mxGeometry width="24" height="30" as="geometry">
            <mxRectangle width="24" height="30" as="alternateBounds" />
          </mxGeometry>
        </mxCell>
        <mxCell id="cykdBwdM0Bds0NIfHY12-69" value="First Name" style="shape=partialRectangle;html=1;whiteSpace=wrap;connectable=0;strokeColor=inherit;overflow=hidden;fillColor=none;top=0;left=0;bottom=0;right=0;pointerEvents=1;align=left;spacingLeft=3;fontColor=#FFFFFF;" parent="cykdBwdM0Bds0NIfHY12-67" vertex="1">
          <mxGeometry x="24" width="156" height="30" as="geometry">
            <mxRectangle width="156" height="30" as="alternateBounds" />
          </mxGeometry>
        </mxCell>
        <mxCell id="cykdBwdM0Bds0NIfHY12-70" value="UD_ARTx_USR_FIRST_NAME" style="shape=partialRectangle;html=1;whiteSpace=wrap;connectable=0;strokeColor=inherit;overflow=hidden;fillColor=none;top=0;left=0;bottom=0;right=0;pointerEvents=1;align=left;spacingLeft=3;fontColor=#FFFFFF;" parent="cykdBwdM0Bds0NIfHY12-67" vertex="1">
          <mxGeometry x="180" width="190" height="30" as="geometry">
            <mxRectangle width="190" height="30" as="alternateBounds" />
          </mxGeometry>
        </mxCell>
        <mxCell id="cykdBwdM0Bds0NIfHY12-71" value="String" style="shape=partialRectangle;html=1;whiteSpace=wrap;connectable=0;strokeColor=inherit;overflow=hidden;fillColor=none;top=0;left=0;bottom=0;right=0;pointerEvents=1;align=left;spacingLeft=3;fontColor=#FFFFFF;" parent="cykdBwdM0Bds0NIfHY12-67" vertex="1">
          <mxGeometry x="370" width="45" height="30" as="geometry">
            <mxRectangle width="45" height="30" as="alternateBounds" />
          </mxGeometry>
        </mxCell>
        <mxCell id="cykdBwdM0Bds0NIfHY12-72" value="80" style="shape=partialRectangle;html=1;whiteSpace=wrap;connectable=0;strokeColor=inherit;overflow=hidden;fillColor=none;top=0;left=0;bottom=0;right=0;pointerEvents=1;align=right;spacingLeft=3;fontColor=#FFFFFF;spacingRight=3;" parent="cykdBwdM0Bds0NIfHY12-67" vertex="1">
          <mxGeometry x="415" width="55" height="30" as="geometry">
            <mxRectangle width="55" height="30" as="alternateBounds" />
          </mxGeometry>
        </mxCell>
        <mxCell id="cykdBwdM0Bds0NIfHY12-73" style="shape=tableRow;horizontal=0;startSize=0;swimlaneHead=0;swimlaneBody=0;strokeColor=inherit;top=0;left=0;bottom=0;right=0;collapsible=0;dropTarget=0;fillColor=none;points=[[0,0.5],[1,0.5]];portConstraint=eastwest;fontColor=#FFFFFF;" parent="cykdBwdM0Bds0NIfHY12-13" vertex="1">
          <mxGeometry y="270" width="470" height="30" as="geometry" />
        </mxCell>
        <mxCell id="cykdBwdM0Bds0NIfHY12-74" value="20" style="shape=partialRectangle;html=1;whiteSpace=wrap;connectable=0;strokeColor=inherit;overflow=hidden;fillColor=none;top=0;left=0;bottom=0;right=0;pointerEvents=1;align=right;spacingLeft=3;fontColor=#FFFFFF;" parent="cykdBwdM0Bds0NIfHY12-73" vertex="1">
          <mxGeometry width="24" height="30" as="geometry">
            <mxRectangle width="24" height="30" as="alternateBounds" />
          </mxGeometry>
        </mxCell>
        <mxCell id="cykdBwdM0Bds0NIfHY12-75" value="Email" style="shape=partialRectangle;html=1;whiteSpace=wrap;connectable=0;strokeColor=inherit;overflow=hidden;fillColor=none;top=0;left=0;bottom=0;right=0;pointerEvents=1;align=left;spacingLeft=3;fontColor=#FFFFFF;" parent="cykdBwdM0Bds0NIfHY12-73" vertex="1">
          <mxGeometry x="24" width="156" height="30" as="geometry">
            <mxRectangle width="156" height="30" as="alternateBounds" />
          </mxGeometry>
        </mxCell>
        <mxCell id="cykdBwdM0Bds0NIfHY12-76" value="UD_ARTx_USR_EMAIL" style="shape=partialRectangle;html=1;whiteSpace=wrap;connectable=0;strokeColor=inherit;overflow=hidden;fillColor=none;top=0;left=0;bottom=0;right=0;pointerEvents=1;align=left;spacingLeft=3;fontColor=#FFFFFF;" parent="cykdBwdM0Bds0NIfHY12-73" vertex="1">
          <mxGeometry x="180" width="190" height="30" as="geometry">
            <mxRectangle width="190" height="30" as="alternateBounds" />
          </mxGeometry>
        </mxCell>
        <mxCell id="cykdBwdM0Bds0NIfHY12-77" value="String" style="shape=partialRectangle;html=1;whiteSpace=wrap;connectable=0;strokeColor=inherit;overflow=hidden;fillColor=none;top=0;left=0;bottom=0;right=0;pointerEvents=1;align=left;spacingLeft=3;fontColor=#FFFFFF;" parent="cykdBwdM0Bds0NIfHY12-73" vertex="1">
          <mxGeometry x="370" width="45" height="30" as="geometry">
            <mxRectangle width="45" height="30" as="alternateBounds" />
          </mxGeometry>
        </mxCell>
        <mxCell id="cykdBwdM0Bds0NIfHY12-78" value="245" style="shape=partialRectangle;html=1;whiteSpace=wrap;connectable=0;strokeColor=inherit;overflow=hidden;fillColor=none;top=0;left=0;bottom=0;right=0;pointerEvents=1;align=right;spacingLeft=3;fontColor=#FFFFFF;spacingRight=3;" parent="cykdBwdM0Bds0NIfHY12-73" vertex="1">
          <mxGeometry x="415" width="55" height="30" as="geometry">
            <mxRectangle width="55" height="30" as="alternateBounds" />
          </mxGeometry>
        </mxCell>
        <mxCell id="cykdBwdM0Bds0NIfHY12-79" style="shape=tableRow;horizontal=0;startSize=0;swimlaneHead=0;swimlaneBody=0;strokeColor=inherit;top=0;left=0;bottom=0;right=0;collapsible=0;dropTarget=0;fillColor=none;points=[[0,0.5],[1,0.5]];portConstraint=eastwest;fontColor=#FFFFFF;" parent="cykdBwdM0Bds0NIfHY12-13" vertex="1">
          <mxGeometry y="300" width="470" height="30" as="geometry" />
        </mxCell>
        <mxCell id="cykdBwdM0Bds0NIfHY12-80" value="22" style="shape=partialRectangle;html=1;whiteSpace=wrap;connectable=0;strokeColor=inherit;overflow=hidden;fillColor=none;top=0;left=0;bottom=0;right=0;pointerEvents=1;align=right;spacingLeft=3;fontColor=#FFFFFF;" parent="cykdBwdM0Bds0NIfHY12-79" vertex="1">
          <mxGeometry width="24" height="30" as="geometry">
            <mxRectangle width="24" height="30" as="alternateBounds" />
          </mxGeometry>
        </mxCell>
        <mxCell id="cykdBwdM0Bds0NIfHY12-81" value="Telephone" style="shape=partialRectangle;html=1;whiteSpace=wrap;connectable=0;strokeColor=inherit;overflow=hidden;fillColor=none;top=0;left=0;bottom=0;right=0;pointerEvents=1;align=left;spacingLeft=3;fontColor=#FFFFFF;" parent="cykdBwdM0Bds0NIfHY12-79" vertex="1">
          <mxGeometry x="24" width="156" height="30" as="geometry">
            <mxRectangle width="156" height="30" as="alternateBounds" />
          </mxGeometry>
        </mxCell>
        <mxCell id="cykdBwdM0Bds0NIfHY12-82" value="UD_ARTx_USR_TELEPHONE" style="shape=partialRectangle;html=1;whiteSpace=wrap;connectable=0;strokeColor=inherit;overflow=hidden;fillColor=none;top=0;left=0;bottom=0;right=0;pointerEvents=1;align=left;spacingLeft=3;fontColor=#FFFFFF;" parent="cykdBwdM0Bds0NIfHY12-79" vertex="1">
          <mxGeometry x="180" width="190" height="30" as="geometry">
            <mxRectangle width="190" height="30" as="alternateBounds" />
          </mxGeometry>
        </mxCell>
        <mxCell id="cykdBwdM0Bds0NIfHY12-83" value="String" style="shape=partialRectangle;html=1;whiteSpace=wrap;connectable=0;strokeColor=inherit;overflow=hidden;fillColor=none;top=0;left=0;bottom=0;right=0;pointerEvents=1;align=left;spacingLeft=3;fontColor=#FFFFFF;" parent="cykdBwdM0Bds0NIfHY12-79" vertex="1">
          <mxGeometry x="370" width="45" height="30" as="geometry">
            <mxRectangle width="45" height="30" as="alternateBounds" />
          </mxGeometry>
        </mxCell>
        <mxCell id="cykdBwdM0Bds0NIfHY12-84" value="32" style="shape=partialRectangle;html=1;whiteSpace=wrap;connectable=0;strokeColor=inherit;overflow=hidden;fillColor=none;top=0;left=0;bottom=0;right=0;pointerEvents=1;align=right;spacingLeft=3;fontColor=#FFFFFF;spacingRight=3;" parent="cykdBwdM0Bds0NIfHY12-79" vertex="1">
          <mxGeometry x="415" width="55" height="30" as="geometry">
            <mxRectangle width="55" height="30" as="alternateBounds" />
          </mxGeometry>
        </mxCell>
        <mxCell id="cykdBwdM0Bds0NIfHY12-85" style="shape=tableRow;horizontal=0;startSize=0;swimlaneHead=0;swimlaneBody=0;strokeColor=inherit;top=0;left=0;bottom=0;right=0;collapsible=0;dropTarget=0;fillColor=none;points=[[0,0.5],[1,0.5]];portConstraint=eastwest;fontColor=#FFFFFF;" parent="cykdBwdM0Bds0NIfHY12-13" vertex="1">
          <mxGeometry y="330" width="470" height="30" as="geometry" />
        </mxCell>
        <mxCell id="cykdBwdM0Bds0NIfHY12-86" value="24" style="shape=partialRectangle;html=1;whiteSpace=wrap;connectable=0;strokeColor=inherit;overflow=hidden;fillColor=none;top=0;left=0;bottom=0;right=0;pointerEvents=1;align=right;spacingLeft=3;fontColor=#FFFFFF;" parent="cykdBwdM0Bds0NIfHY12-85" vertex="1">
          <mxGeometry width="24" height="30" as="geometry">
            <mxRectangle width="24" height="30" as="alternateBounds" />
          </mxGeometry>
        </mxCell>
        <mxCell id="cykdBwdM0Bds0NIfHY12-87" value="Facsimile Telephonenumber" style="shape=partialRectangle;html=1;whiteSpace=wrap;connectable=0;strokeColor=inherit;overflow=hidden;fillColor=none;top=0;left=0;bottom=0;right=0;pointerEvents=1;align=left;spacingLeft=3;fontColor=#FFFFFF;" parent="cykdBwdM0Bds0NIfHY12-85" vertex="1">
          <mxGeometry x="24" width="156" height="30" as="geometry">
            <mxRectangle width="156" height="30" as="alternateBounds" />
          </mxGeometry>
        </mxCell>
        <mxCell id="cykdBwdM0Bds0NIfHY12-88" value="UD_ARTx_USR_FACSIMILE" style="shape=partialRectangle;html=1;whiteSpace=wrap;connectable=0;strokeColor=inherit;overflow=hidden;fillColor=none;top=0;left=0;bottom=0;right=0;pointerEvents=1;align=left;spacingLeft=3;fontColor=#FFFFFF;" parent="cykdBwdM0Bds0NIfHY12-85" vertex="1">
          <mxGeometry x="180" width="190" height="30" as="geometry">
            <mxRectangle width="190" height="30" as="alternateBounds" />
          </mxGeometry>
        </mxCell>
        <mxCell id="cykdBwdM0Bds0NIfHY12-89" value="String" style="shape=partialRectangle;html=1;whiteSpace=wrap;connectable=0;strokeColor=inherit;overflow=hidden;fillColor=none;top=0;left=0;bottom=0;right=0;pointerEvents=1;align=left;spacingLeft=3;fontColor=#FFFFFF;" parent="cykdBwdM0Bds0NIfHY12-85" vertex="1">
          <mxGeometry x="370" width="45" height="30" as="geometry">
            <mxRectangle width="45" height="30" as="alternateBounds" />
          </mxGeometry>
        </mxCell>
        <mxCell id="cykdBwdM0Bds0NIfHY12-90" value="32" style="shape=partialRectangle;html=1;whiteSpace=wrap;connectable=0;strokeColor=inherit;overflow=hidden;fillColor=none;top=0;left=0;bottom=0;right=0;pointerEvents=1;align=right;spacingLeft=3;fontColor=#FFFFFF;spacingRight=3;" parent="cykdBwdM0Bds0NIfHY12-85" vertex="1">
          <mxGeometry x="415" width="55" height="30" as="geometry">
            <mxRectangle width="55" height="30" as="alternateBounds" />
          </mxGeometry>
        </mxCell>
        <mxCell id="cykdBwdM0Bds0NIfHY12-91" style="shape=tableRow;horizontal=0;startSize=0;swimlaneHead=0;swimlaneBody=0;strokeColor=inherit;top=0;left=0;bottom=0;right=0;collapsible=0;dropTarget=0;fillColor=none;points=[[0,0.5],[1,0.5]];portConstraint=eastwest;fontColor=#FFFFFF;" parent="cykdBwdM0Bds0NIfHY12-13" vertex="1">
          <mxGeometry y="360" width="470" height="30" as="geometry" />
        </mxCell>
        <mxCell id="cykdBwdM0Bds0NIfHY12-92" value="26" style="shape=partialRectangle;html=1;whiteSpace=wrap;connectable=0;strokeColor=inherit;overflow=hidden;fillColor=none;top=0;left=0;bottom=0;right=0;pointerEvents=1;align=right;spacingLeft=3;fontColor=#FFFFFF;" parent="cykdBwdM0Bds0NIfHY12-91" vertex="1">
          <mxGeometry width="24" height="30" as="geometry">
            <mxRectangle width="24" height="30" as="alternateBounds" />
          </mxGeometry>
        </mxCell>
        <mxCell id="cykdBwdM0Bds0NIfHY12-93" value="Organization" style="shape=partialRectangle;html=1;whiteSpace=wrap;connectable=0;strokeColor=inherit;overflow=hidden;fillColor=none;top=0;left=0;bottom=0;right=0;pointerEvents=1;align=left;spacingLeft=3;fontColor=#FFFFFF;" parent="cykdBwdM0Bds0NIfHY12-91" vertex="1">
          <mxGeometry x="24" width="156" height="30" as="geometry">
            <mxRectangle width="156" height="30" as="alternateBounds" />
          </mxGeometry>
        </mxCell>
        <mxCell id="cykdBwdM0Bds0NIfHY12-94" value="UD_ARTx_USR_ORG" style="shape=partialRectangle;html=1;whiteSpace=wrap;connectable=0;strokeColor=inherit;overflow=hidden;fillColor=none;top=0;left=0;bottom=0;right=0;pointerEvents=1;align=left;spacingLeft=3;fontColor=#FFFFFF;" parent="cykdBwdM0Bds0NIfHY12-91" vertex="1">
          <mxGeometry x="180" width="190" height="30" as="geometry">
            <mxRectangle width="190" height="30" as="alternateBounds" />
          </mxGeometry>
        </mxCell>
        <mxCell id="cykdBwdM0Bds0NIfHY12-95" value="String" style="shape=partialRectangle;html=1;whiteSpace=wrap;connectable=0;strokeColor=inherit;overflow=hidden;fillColor=none;top=0;left=0;bottom=0;right=0;pointerEvents=1;align=left;spacingLeft=3;fontColor=#FFFFFF;" parent="cykdBwdM0Bds0NIfHY12-91" vertex="1">
          <mxGeometry x="370" width="45" height="30" as="geometry">
            <mxRectangle width="45" height="30" as="alternateBounds" />
          </mxGeometry>
        </mxCell>
        <mxCell id="cykdBwdM0Bds0NIfHY12-96" value="256" style="shape=partialRectangle;html=1;whiteSpace=wrap;connectable=0;strokeColor=inherit;overflow=hidden;fillColor=none;top=0;left=0;bottom=0;right=0;pointerEvents=1;align=right;spacingLeft=3;fontColor=#FFFFFF;spacingRight=3;" parent="cykdBwdM0Bds0NIfHY12-91" vertex="1">
          <mxGeometry x="415" width="55" height="30" as="geometry">
            <mxRectangle width="55" height="30" as="alternateBounds" />
          </mxGeometry>
        </mxCell>
        <mxCell id="cykdBwdM0Bds0NIfHY12-97" style="shape=tableRow;horizontal=0;startSize=0;swimlaneHead=0;swimlaneBody=0;strokeColor=inherit;top=0;left=0;bottom=0;right=0;collapsible=0;dropTarget=0;fillColor=none;points=[[0,0.5],[1,0.5]];portConstraint=eastwest;fontColor=#FFFFFF;" parent="cykdBwdM0Bds0NIfHY12-13" vertex="1">
          <mxGeometry y="390" width="470" height="30" as="geometry" />
        </mxCell>
        <mxCell id="cykdBwdM0Bds0NIfHY12-98" value="28" style="shape=partialRectangle;html=1;whiteSpace=wrap;connectable=0;strokeColor=inherit;overflow=hidden;fillColor=none;top=0;left=0;bottom=0;right=0;pointerEvents=1;align=right;spacingLeft=3;fontColor=#FFFFFF;" parent="cykdBwdM0Bds0NIfHY12-97" vertex="1">
          <mxGeometry width="24" height="30" as="geometry">
            <mxRectangle width="24" height="30" as="alternateBounds" />
          </mxGeometry>
        </mxCell>
        <mxCell id="cykdBwdM0Bds0NIfHY12-99" value="Division" style="shape=partialRectangle;html=1;whiteSpace=wrap;connectable=0;strokeColor=inherit;overflow=hidden;fillColor=none;top=0;left=0;bottom=0;right=0;pointerEvents=1;align=left;spacingLeft=3;fontColor=#FFFFFF;" parent="cykdBwdM0Bds0NIfHY12-97" vertex="1">
          <mxGeometry x="24" width="156" height="30" as="geometry">
            <mxRectangle width="156" height="30" as="alternateBounds" />
          </mxGeometry>
        </mxCell>
        <mxCell id="cykdBwdM0Bds0NIfHY12-100" value="UD_ARTx_USR_DIV" style="shape=partialRectangle;html=1;whiteSpace=wrap;connectable=0;strokeColor=inherit;overflow=hidden;fillColor=none;top=0;left=0;bottom=0;right=0;pointerEvents=1;align=left;spacingLeft=3;fontColor=#FFFFFF;" parent="cykdBwdM0Bds0NIfHY12-97" vertex="1">
          <mxGeometry x="180" width="190" height="30" as="geometry">
            <mxRectangle width="190" height="30" as="alternateBounds" />
          </mxGeometry>
        </mxCell>
        <mxCell id="cykdBwdM0Bds0NIfHY12-101" value="String" style="shape=partialRectangle;html=1;whiteSpace=wrap;connectable=0;strokeColor=inherit;overflow=hidden;fillColor=none;top=0;left=0;bottom=0;right=0;pointerEvents=1;align=left;spacingLeft=3;fontColor=#FFFFFF;" parent="cykdBwdM0Bds0NIfHY12-97" vertex="1">
          <mxGeometry x="370" width="45" height="30" as="geometry">
            <mxRectangle width="45" height="30" as="alternateBounds" />
          </mxGeometry>
        </mxCell>
        <mxCell id="cykdBwdM0Bds0NIfHY12-102" value="256" style="shape=partialRectangle;html=1;whiteSpace=wrap;connectable=0;strokeColor=inherit;overflow=hidden;fillColor=none;top=0;left=0;bottom=0;right=0;pointerEvents=1;align=right;spacingLeft=3;fontColor=#FFFFFF;spacingRight=3;" parent="cykdBwdM0Bds0NIfHY12-97" vertex="1">
          <mxGeometry x="415" width="55" height="30" as="geometry">
            <mxRectangle width="55" height="30" as="alternateBounds" />
          </mxGeometry>
        </mxCell>
        <mxCell id="cykdBwdM0Bds0NIfHY12-103" style="shape=tableRow;horizontal=0;startSize=0;swimlaneHead=0;swimlaneBody=0;strokeColor=inherit;top=0;left=0;bottom=0;right=0;collapsible=0;dropTarget=0;fillColor=none;points=[[0,0.5],[1,0.5]];portConstraint=eastwest;fontColor=#FFFFFF;" parent="cykdBwdM0Bds0NIfHY12-13" vertex="1">
          <mxGeometry y="420" width="470" height="30" as="geometry" />
        </mxCell>
        <mxCell id="cykdBwdM0Bds0NIfHY12-104" value="30" style="shape=partialRectangle;html=1;whiteSpace=wrap;connectable=0;strokeColor=inherit;overflow=hidden;fillColor=none;top=0;left=0;bottom=0;right=0;pointerEvents=1;align=right;spacingLeft=3;fontColor=#FFFFFF;" parent="cykdBwdM0Bds0NIfHY12-103" vertex="1">
          <mxGeometry width="24" height="30" as="geometry">
            <mxRectangle width="24" height="30" as="alternateBounds" />
          </mxGeometry>
        </mxCell>
        <mxCell id="cykdBwdM0Bds0NIfHY12-105" value="Department" style="shape=partialRectangle;html=1;whiteSpace=wrap;connectable=0;strokeColor=inherit;overflow=hidden;fillColor=none;top=0;left=0;bottom=0;right=0;pointerEvents=1;align=left;spacingLeft=3;fontColor=#FFFFFF;" parent="cykdBwdM0Bds0NIfHY12-103" vertex="1">
          <mxGeometry x="24" width="156" height="30" as="geometry">
            <mxRectangle width="156" height="30" as="alternateBounds" />
          </mxGeometry>
        </mxCell>
        <mxCell id="cykdBwdM0Bds0NIfHY12-106" value="UD_ARTx_USR_DEP" style="shape=partialRectangle;html=1;whiteSpace=wrap;connectable=0;strokeColor=inherit;overflow=hidden;fillColor=none;top=0;left=0;bottom=0;right=0;pointerEvents=1;align=left;spacingLeft=3;fontColor=#FFFFFF;" parent="cykdBwdM0Bds0NIfHY12-103" vertex="1">
          <mxGeometry x="180" width="190" height="30" as="geometry">
            <mxRectangle width="190" height="30" as="alternateBounds" />
          </mxGeometry>
        </mxCell>
        <mxCell id="cykdBwdM0Bds0NIfHY12-107" value="String" style="shape=partialRectangle;html=1;whiteSpace=wrap;connectable=0;strokeColor=inherit;overflow=hidden;fillColor=none;top=0;left=0;bottom=0;right=0;pointerEvents=1;align=left;spacingLeft=3;fontColor=#FFFFFF;" parent="cykdBwdM0Bds0NIfHY12-103" vertex="1">
          <mxGeometry x="370" width="45" height="30" as="geometry">
            <mxRectangle width="45" height="30" as="alternateBounds" />
          </mxGeometry>
        </mxCell>
        <mxCell id="cykdBwdM0Bds0NIfHY12-108" value="256" style="shape=partialRectangle;html=1;whiteSpace=wrap;connectable=0;strokeColor=inherit;overflow=hidden;fillColor=none;top=0;left=0;bottom=0;right=0;pointerEvents=1;align=right;spacingLeft=3;fontColor=#FFFFFF;spacingRight=3;" parent="cykdBwdM0Bds0NIfHY12-103" vertex="1">
          <mxGeometry x="415" width="55" height="30" as="geometry">
            <mxRectangle width="55" height="30" as="alternateBounds" />
          </mxGeometry>
        </mxCell>
        <mxCell id="cykdBwdM0Bds0NIfHY12-118" value="" style="endArrow=oval;html=1;rounded=0;exitX=1;exitY=0.5;exitDx=0;exitDy=0;entryX=0;entryY=0.5;entryDx=0;entryDy=0;startArrow=oval;startFill=1;endFill=1;strokeColor=#7030A0;" parent="1" source="cykdBwdM0Bds0NIfHY12-7" target="cykdBwdM0Bds0NIfHY12-37" edge="1">
          <mxGeometry width="50" height="50" relative="1" as="geometry">
            <mxPoint x="407" y="589" as="sourcePoint" />
            <mxPoint x="457" y="539" as="targetPoint" />
          </mxGeometry>
        </mxCell>
        <mxCell id="cykdBwdM0Bds0NIfHY12-120" value="" style="endArrow=oval;html=1;rounded=0;exitX=1;exitY=0.5;exitDx=0;exitDy=0;entryX=0;entryY=0.5;entryDx=0;entryDy=0;startArrow=oval;startFill=1;endFill=1;strokeColor=#7030A0;" parent="1" source="cykdBwdM0Bds0NIfHY12-8" target="cykdBwdM0Bds0NIfHY12-49" edge="1">
          <mxGeometry width="50" height="50" relative="1" as="geometry">
            <mxPoint x="205" y="161" as="sourcePoint" />
            <mxPoint x="307" y="161" as="targetPoint" />
          </mxGeometry>
        </mxCell>
        <mxCell id="cykdBwdM0Bds0NIfHY12-121" value="" style="endArrow=oval;html=1;rounded=0;exitX=1;exitY=0.5;exitDx=0;exitDy=0;entryX=0;entryY=0.5;entryDx=0;entryDy=0;startArrow=oval;startFill=1;endFill=1;strokeColor=#7030A0;" parent="1" source="cykdBwdM0Bds0NIfHY12-9" target="cykdBwdM0Bds0NIfHY12-55" edge="1">
          <mxGeometry width="50" height="50" relative="1" as="geometry">
            <mxPoint x="215" y="171" as="sourcePoint" />
            <mxPoint x="317" y="171" as="targetPoint" />
          </mxGeometry>
        </mxCell>
        <mxCell id="cykdBwdM0Bds0NIfHY12-127" value="Identity Status" style="rounded=0;whiteSpace=wrap;html=1;strokeColor=#FFFFFF;fillColor=#7030A0;fontColor=#FFFFFF;align=left;spacingLeft=3;" parent="1" vertex="1">
          <mxGeometry x="14.873999999999995" y="166.08999999999997" width="180" height="30" as="geometry" />
        </mxCell>
        <mxCell id="cykdBwdM0Bds0NIfHY12-128" value="" style="endArrow=oval;html=1;rounded=0;exitX=1;exitY=0.5;exitDx=0;exitDy=0;entryX=0;entryY=0.5;entryDx=0;entryDy=0;startArrow=oval;startFill=1;endFill=1;strokeColor=#7030A0;" parent="1" source="cykdBwdM0Bds0NIfHY12-127" target="cykdBwdM0Bds0NIfHY12-43" edge="1">
          <mxGeometry width="50" height="50" relative="1" as="geometry">
            <mxPoint x="205" y="281" as="sourcePoint" />
            <mxPoint x="307" y="281" as="targetPoint" />
          </mxGeometry>
        </mxCell>
        <mxCell id="cykdBwdM0Bds0NIfHY12-133" value="Last Name" style="rounded=0;whiteSpace=wrap;html=1;strokeColor=#FFFFFF;fillColor=#7030A0;fontColor=#FFFFFF;align=left;spacingLeft=3;" parent="1" vertex="1">
          <mxGeometry x="14.873999999999995" y="256.09000000000003" width="180" height="30" as="geometry" />
        </mxCell>
        <mxCell id="cykdBwdM0Bds0NIfHY12-137" value="" style="endArrow=oval;html=1;rounded=0;exitX=1;exitY=0.5;exitDx=0;exitDy=0;entryX=0;entryY=0.5;entryDx=0;entryDy=0;startArrow=oval;startFill=1;endFill=1;strokeColor=#7030A0;" parent="1" source="cykdBwdM0Bds0NIfHY12-133" target="cykdBwdM0Bds0NIfHY12-61" edge="1">
          <mxGeometry width="50" height="50" relative="1" as="geometry">
            <mxPoint x="205" y="341" as="sourcePoint" />
            <mxPoint x="307" y="341" as="targetPoint" />
          </mxGeometry>
        </mxCell>
        <mxCell id="cykdBwdM0Bds0NIfHY12-157" value="organizationalUnit" style="rounded=0;whiteSpace=wrap;html=1;strokeColor=#FFFFFF;fillColor=#7030A0;fontColor=#FFFFFF;align=left;spacingLeft=3;" parent="1" vertex="1">
          <mxGeometry x="14.873999999999999" y="406.09000000000003" width="180" height="30" as="geometry" />
        </mxCell>
        <mxCell id="cykdBwdM0Bds0NIfHY12-158" value="" style="endArrow=oval;html=1;rounded=0;exitX=1;exitY=0.5;exitDx=0;exitDy=0;entryX=0;entryY=0.5;entryDx=0;entryDy=0;startArrow=oval;startFill=1;endFill=1;strokeColor=#7030A0;" parent="1" source="cykdBwdM0Bds0NIfHY12-157" target="cykdBwdM0Bds0NIfHY12-91" edge="1">
          <mxGeometry width="50" height="50" relative="1" as="geometry">
            <mxPoint x="205" y="461" as="sourcePoint" />
            <mxPoint x="307" y="461" as="targetPoint" />
          </mxGeometry>
        </mxCell>
        <mxCell id="cykdBwdM0Bds0NIfHY12-159" value="division" style="rounded=0;whiteSpace=wrap;html=1;strokeColor=#FFFFFF;fillColor=#7030A0;fontColor=#FFFFFF;align=left;spacingLeft=3;" parent="1" vertex="1">
          <mxGeometry x="14.873999999999999" y="436.09000000000003" width="180" height="30" as="geometry" />
        </mxCell>
        <mxCell id="cykdBwdM0Bds0NIfHY12-160" value="department" style="rounded=0;whiteSpace=wrap;html=1;strokeColor=#FFFFFF;fillColor=#7030A0;fontColor=#FFFFFF;align=left;spacingLeft=3;" parent="1" vertex="1">
          <mxGeometry x="14.873999999999999" y="466.09000000000003" width="180" height="30" as="geometry" />
        </mxCell>
        <mxCell id="cykdBwdM0Bds0NIfHY12-167" value="Facsimile" style="rounded=0;whiteSpace=wrap;html=1;strokeColor=#FFFFFF;fillColor=#7030A0;fontColor=#FFFFFF;align=left;spacingLeft=3;" parent="1" vertex="1">
          <mxGeometry x="14.873999999999999" y="376.09000000000003" width="180" height="30" as="geometry" />
        </mxCell>
        <mxCell id="cykdBwdM0Bds0NIfHY12-193" value="" style="endArrow=oval;html=1;rounded=0;exitX=1;exitY=0.5;exitDx=0;exitDy=0;entryX=0;entryY=0.5;entryDx=0;entryDy=0;startArrow=oval;startFill=1;endFill=1;strokeColor=#7030A0;" parent="1" source="cykdBwdM0Bds0NIfHY12-159" target="cykdBwdM0Bds0NIfHY12-97" edge="1">
          <mxGeometry width="50" height="50" relative="1" as="geometry">
            <mxPoint x="205" y="551" as="sourcePoint" />
            <mxPoint x="307" y="551" as="targetPoint" />
          </mxGeometry>
        </mxCell>
        <mxCell id="cykdBwdM0Bds0NIfHY12-194" value="" style="endArrow=oval;html=1;rounded=0;exitX=1;exitY=0.5;exitDx=0;exitDy=0;startArrow=oval;startFill=1;endFill=1;strokeColor=#7030A0;" parent="1" source="cykdBwdM0Bds0NIfHY12-160" target="cykdBwdM0Bds0NIfHY12-103" edge="1">
          <mxGeometry width="50" height="50" relative="1" as="geometry">
            <mxPoint x="215" y="561" as="sourcePoint" />
            <mxPoint x="317" y="561" as="targetPoint" />
          </mxGeometry>
        </mxCell>
        <mxCell id="cykdBwdM0Bds0NIfHY12-195" value="" style="endArrow=oval;html=1;rounded=0;exitX=1;exitY=0.5;exitDx=0;exitDy=0;entryX=0;entryY=0.5;entryDx=0;entryDy=0;startArrow=oval;startFill=1;endFill=1;strokeColor=#7030A0;" parent="1" source="cykdBwdM0Bds0NIfHY12-167" target="cykdBwdM0Bds0NIfHY12-85" edge="1">
          <mxGeometry width="50" height="50" relative="1" as="geometry">
            <mxPoint x="225" y="571" as="sourcePoint" />
            <mxPoint x="327" y="571" as="targetPoint" />
          </mxGeometry>
        </mxCell>
        <mxCell id="cykdBwdM0Bds0NIfHY12-197" value="@artus SCIM" style="rounded=0;whiteSpace=wrap;html=1;strokeColor=#5B9BD5;fontColor=#5B9BD5;fontStyle=1;verticalAlign=middle;align=left;spacingLeft=3;" parent="1" vertex="1">
          <mxGeometry x="828" y="9" width="652" height="30" as="geometry" />
        </mxCell>
        <mxCell id="cykdBwdM0Bds0NIfHY12-198" value="" style="rounded=0;whiteSpace=wrap;html=1;strokeColor=#5B9BD5;fillColor=#f5f5f5;fontColor=#333333;" parent="1" vertex="1">
          <mxGeometry x="828" y="39" width="652" height="471" as="geometry" />
        </mxCell>
        <mxCell id="cykdBwdM0Bds0NIfHY12-200" value="urn:ietf:params:scim:schemas:core:2.0:User" style="rounded=0;whiteSpace=wrap;html=1;strokeColor=#82b366;fillColor=#d5e8d4;align=left;spacingLeft=3;" parent="1" vertex="1">
          <mxGeometry x="847" y="106.09" width="354.33" height="30" as="geometry" />
        </mxCell>
        <mxCell id="cykdBwdM0Bds0NIfHY12-201" value="urn:ietf:params:scim:schemas:core:2.0:User" style="rounded=0;whiteSpace=wrap;html=1;strokeColor=#82b366;fillColor=#d5e8d4;align=left;spacingLeft=3;" parent="1" vertex="1">
          <mxGeometry x="847" y="136.09" width="354.33" height="30" as="geometry" />
        </mxCell>
        <mxCell id="cykdBwdM0Bds0NIfHY12-202" value="urn:ietf:params:scim:schemas:core:2.0:User" style="rounded=0;whiteSpace=wrap;html=1;strokeColor=#82b366;fillColor=#d5e8d4;align=left;spacingLeft=3;" parent="1" vertex="1">
          <mxGeometry x="847" y="166.09" width="354.33" height="30" as="geometry" />
        </mxCell>
        <mxCell id="cykdBwdM0Bds0NIfHY12-203" value="urn:p20:params:scim:schemas:extension:police:1.0:User" style="rounded=0;whiteSpace=wrap;html=1;strokeColor=#9673a6;fillColor=#e1d5e7;align=left;spacingLeft=3;" parent="1" vertex="1">
          <mxGeometry x="847" y="196.09" width="354.33" height="30" as="geometry" />
        </mxCell>
        <mxCell id="cykdBwdM0Bds0NIfHY12-204" value="urn:ietf:params:scim:schemas:core:2.0:User" style="rounded=0;whiteSpace=wrap;html=1;strokeColor=#82b366;fillColor=#d5e8d4;align=left;spacingLeft=3;" parent="1" vertex="1">
          <mxGeometry x="847" y="226.09" width="354.33" height="30" as="geometry" />
        </mxCell>
        <mxCell id="cykdBwdM0Bds0NIfHY12-205" value="urn:ietf:params:scim:schemas:core:2.0:User" style="rounded=0;whiteSpace=wrap;html=1;strokeColor=#82b366;fillColor=#d5e8d4;align=left;spacingLeft=3;" parent="1" vertex="1">
          <mxGeometry x="847" y="256.09" width="354.33" height="30" as="geometry" />
        </mxCell>
        <mxCell id="cykdBwdM0Bds0NIfHY12-206" value="urn:ietf:params:scim:schemas:core:2.0:User" style="rounded=0;whiteSpace=wrap;html=1;strokeColor=#82b366;fillColor=#d5e8d4;align=left;spacingLeft=3;" parent="1" vertex="1">
          <mxGeometry x="847.004" y="286.09" width="354.33" height="30" as="geometry" />
        </mxCell>
        <mxCell id="cykdBwdM0Bds0NIfHY12-207" value="urn:ietf:params:scim:schemas:core:2.0:User" style="rounded=0;whiteSpace=wrap;html=1;strokeColor=#82b366;fillColor=#d5e8d4;align=left;spacingLeft=3;" parent="1" vertex="1">
          <mxGeometry x="847.004" y="316.09" width="354.33" height="30" as="geometry" />
        </mxCell>
        <mxCell id="cykdBwdM0Bds0NIfHY12-208" value="phoneNumbers[{type=&quot;fax&lt;span style=&quot;background-color: initial;&quot;&gt;&quot;}]&lt;/span&gt;" style="rounded=0;whiteSpace=wrap;html=1;strokeColor=#FFFF00;fillColor=#FFFFCC;fontColor=#000000;align=left;spacingLeft=3;" parent="1" vertex="1">
          <mxGeometry x="1213.004" y="376.09" width="251.968" height="30" as="geometry" />
        </mxCell>
        <mxCell id="cykdBwdM0Bds0NIfHY12-209" value="urn:ietf:params:scim:schemas:core:2.0:User" style="rounded=0;whiteSpace=wrap;html=1;strokeColor=#82b366;fillColor=#d5e8d4;align=left;spacingLeft=3;" parent="1" vertex="1">
          <mxGeometry x="847" y="376.09" width="354.33" height="30" as="geometry" />
        </mxCell>
        <mxCell id="cykdBwdM0Bds0NIfHY12-210" value="urn:ietf:params:scim:schemas:extension:enterprise:2.0:User" style="rounded=0;whiteSpace=wrap;html=1;strokeColor=#82b366;fillColor=#d5e8d4;align=left;spacingLeft=3;" parent="1" vertex="1">
          <mxGeometry x="847.004" y="406.09" width="354.33" height="30" as="geometry" />
        </mxCell>
        <mxCell id="cykdBwdM0Bds0NIfHY12-211" value="urn:ietf:params:scim:schemas:extension:enterprise:2.0:User" style="rounded=0;whiteSpace=wrap;html=1;strokeColor=#82b366;fillColor=#d5e8d4;align=left;spacingLeft=3;" parent="1" vertex="1">
          <mxGeometry x="847.004" y="436.09" width="354.33" height="30" as="geometry" />
        </mxCell>
        <mxCell id="cykdBwdM0Bds0NIfHY12-212" value="urn:ietf:params:scim:schemas:extension:enterprise:2.0:User" style="rounded=0;whiteSpace=wrap;html=1;strokeColor=#82b366;fillColor=#d5e8d4;align=left;spacingLeft=3;" parent="1" vertex="1">
          <mxGeometry x="847.004" y="466.0899999999999" width="354.33" height="30" as="geometry" />
        </mxCell>
        <mxCell id="cykdBwdM0Bds0NIfHY12-213" value="organization" style="rounded=0;whiteSpace=wrap;html=1;strokeColor=#FFFF00;fillColor=#FFFFCC;fontColor=#000000;align=left;spacingLeft=3;" parent="1" vertex="1">
          <mxGeometry x="1213.004" y="406.09" width="251.968" height="30" as="geometry" />
        </mxCell>
        <mxCell id="cykdBwdM0Bds0NIfHY12-360" value="@rtus Role" style="rounded=0;whiteSpace=wrap;html=1;strokeColor=#5B9BD5;fontColor=#5B9BD5;fontStyle=1;verticalAlign=middle;align=left;spacingLeft=3;" parent="1" vertex="1">
          <mxGeometry x="300" y="655" width="440" height="30" as="geometry" />
        </mxCell>
        <mxCell id="cykdBwdM0Bds0NIfHY12-361" value="" style="rounded=0;whiteSpace=wrap;html=1;strokeColor=#5B9BD5;fillColor=#f5f5f5;fontColor=#333333;" parent="1" vertex="1">
          <mxGeometry x="300" y="685" width="440" height="85" as="geometry" />
        </mxCell>
        <mxCell id="cykdBwdM0Bds0NIfHY12-362" value="" style="shape=table;startSize=0;container=1;collapsible=0;childLayout=tableLayout;fillColor=#5B9BD5;strokeColor=#5B9BD5;fontColor=#FFFFFF;spacingRight=3;spacingLeft=3;" parent="1" vertex="1">
          <mxGeometry x="310" y="695" width="420" height="60" as="geometry" />
        </mxCell>
        <mxCell id="cykdBwdM0Bds0NIfHY12-363" style="shape=tableRow;horizontal=0;startSize=0;swimlaneHead=0;swimlaneBody=0;strokeColor=inherit;top=0;left=0;bottom=0;right=0;collapsible=0;dropTarget=0;fillColor=none;points=[[0,0.5],[1,0.5]];portConstraint=eastwest;fontColor=#FFFFFF;" parent="cykdBwdM0Bds0NIfHY12-362" vertex="1">
          <mxGeometry width="420" height="30" as="geometry" />
        </mxCell>
        <mxCell id="cykdBwdM0Bds0NIfHY12-364" value="2" style="shape=partialRectangle;html=1;whiteSpace=wrap;connectable=0;strokeColor=inherit;overflow=hidden;fillColor=none;top=0;left=0;bottom=0;right=0;pointerEvents=1;align=right;spacingLeft=3;fontColor=#FFFFFF;" parent="cykdBwdM0Bds0NIfHY12-363" vertex="1">
          <mxGeometry width="22" height="30" as="geometry">
            <mxRectangle width="22" height="30" as="alternateBounds" />
          </mxGeometry>
        </mxCell>
        <mxCell id="cykdBwdM0Bds0NIfHY12-365" value="Id" style="shape=partialRectangle;html=1;whiteSpace=wrap;connectable=0;strokeColor=inherit;overflow=hidden;fillColor=none;top=0;left=0;bottom=0;right=0;pointerEvents=1;align=left;spacingLeft=3;fontColor=#FFFFFF;" parent="cykdBwdM0Bds0NIfHY12-363" vertex="1">
          <mxGeometry x="22" width="104" height="30" as="geometry">
            <mxRectangle width="104" height="30" as="alternateBounds" />
          </mxGeometry>
        </mxCell>
        <mxCell id="cykdBwdM0Bds0NIfHY12-366" value="UD_ARTx_URL_OID" style="shape=partialRectangle;html=1;whiteSpace=wrap;connectable=0;strokeColor=inherit;overflow=hidden;fillColor=none;top=0;left=0;bottom=0;right=0;pointerEvents=1;align=left;spacingLeft=3;fontColor=#FFFFFF;" parent="cykdBwdM0Bds0NIfHY12-363" vertex="1">
          <mxGeometry x="126" width="190" height="30" as="geometry">
            <mxRectangle width="190" height="30" as="alternateBounds" />
          </mxGeometry>
        </mxCell>
        <mxCell id="cykdBwdM0Bds0NIfHY12-367" value="String" style="shape=partialRectangle;html=1;whiteSpace=wrap;connectable=0;strokeColor=inherit;overflow=hidden;fillColor=none;top=0;left=0;bottom=0;right=0;pointerEvents=1;align=left;spacingLeft=3;fontColor=#FFFFFF;" parent="cykdBwdM0Bds0NIfHY12-363" vertex="1">
          <mxGeometry x="316" width="55" height="30" as="geometry">
            <mxRectangle width="55" height="30" as="alternateBounds" />
          </mxGeometry>
        </mxCell>
        <mxCell id="cykdBwdM0Bds0NIfHY12-368" value="64" style="shape=partialRectangle;whiteSpace=wrap;connectable=0;strokeColor=inherit;overflow=hidden;fillColor=none;top=0;left=0;bottom=0;right=0;pointerEvents=1;align=right;spacingLeft=3;fontColor=#FFFFFF;spacingRight=3;" parent="cykdBwdM0Bds0NIfHY12-363" vertex="1">
          <mxGeometry x="371" width="49" height="30" as="geometry">
            <mxRectangle width="49" height="30" as="alternateBounds" />
          </mxGeometry>
        </mxCell>
        <mxCell id="6jSW1wxHa4UhFju4t9YE-57" style="shape=tableRow;horizontal=0;startSize=0;swimlaneHead=0;swimlaneBody=0;strokeColor=inherit;top=0;left=0;bottom=0;right=0;collapsible=0;dropTarget=0;fillColor=none;points=[[0,0.5],[1,0.5]];portConstraint=eastwest;fontColor=#FFFFFF;" parent="cykdBwdM0Bds0NIfHY12-362" vertex="1">
          <mxGeometry y="30" width="420" height="30" as="geometry" />
        </mxCell>
        <mxCell id="6jSW1wxHa4UhFju4t9YE-58" value="4" style="shape=partialRectangle;html=1;whiteSpace=wrap;connectable=0;strokeColor=inherit;overflow=hidden;fillColor=none;top=0;left=0;bottom=0;right=0;pointerEvents=1;align=right;spacingLeft=3;fontColor=#FFFFFF;" parent="6jSW1wxHa4UhFju4t9YE-57" vertex="1">
          <mxGeometry width="22" height="30" as="geometry">
            <mxRectangle width="22" height="30" as="alternateBounds" />
          </mxGeometry>
        </mxCell>
        <mxCell id="6jSW1wxHa4UhFju4t9YE-59" value="Role" style="shape=partialRectangle;html=1;whiteSpace=wrap;connectable=0;strokeColor=inherit;overflow=hidden;fillColor=none;top=0;left=0;bottom=0;right=0;pointerEvents=1;align=left;spacingLeft=3;fontColor=#FFFFFF;" parent="6jSW1wxHa4UhFju4t9YE-57" vertex="1">
          <mxGeometry x="22" width="104" height="30" as="geometry">
            <mxRectangle width="104" height="30" as="alternateBounds" />
          </mxGeometry>
        </mxCell>
        <mxCell id="6jSW1wxHa4UhFju4t9YE-60" value="UD_ARTx_URL_RID" style="shape=partialRectangle;html=1;whiteSpace=wrap;connectable=0;strokeColor=inherit;overflow=hidden;fillColor=none;top=0;left=0;bottom=0;right=0;pointerEvents=1;align=left;spacingLeft=3;fontColor=#FFFFFF;" parent="6jSW1wxHa4UhFju4t9YE-57" vertex="1">
          <mxGeometry x="126" width="190" height="30" as="geometry">
            <mxRectangle width="190" height="30" as="alternateBounds" />
          </mxGeometry>
        </mxCell>
        <mxCell id="6jSW1wxHa4UhFju4t9YE-61" value="String" style="shape=partialRectangle;html=1;whiteSpace=wrap;connectable=0;strokeColor=inherit;overflow=hidden;fillColor=none;top=0;left=0;bottom=0;right=0;pointerEvents=1;align=left;spacingLeft=3;fontColor=#FFFFFF;" parent="6jSW1wxHa4UhFju4t9YE-57" vertex="1">
          <mxGeometry x="316" width="55" height="30" as="geometry">
            <mxRectangle width="55" height="30" as="alternateBounds" />
          </mxGeometry>
        </mxCell>
        <mxCell id="6jSW1wxHa4UhFju4t9YE-62" value="64" style="shape=partialRectangle;whiteSpace=wrap;connectable=0;strokeColor=inherit;overflow=hidden;fillColor=none;top=0;left=0;bottom=0;right=0;pointerEvents=1;align=right;spacingLeft=3;fontColor=#FFFFFF;spacingRight=3;" parent="6jSW1wxHa4UhFju4t9YE-57" vertex="1">
          <mxGeometry x="371" width="49" height="30" as="geometry">
            <mxRectangle width="49" height="30" as="alternateBounds" />
          </mxGeometry>
        </mxCell>
        <mxCell id="cykdBwdM0Bds0NIfHY12-371" value="" style="endArrow=diamondThin;html=1;rounded=0;exitX=0;exitY=0.5;exitDx=0;exitDy=0;strokeColor=#5B9BD5;startArrow=none;startFill=0;endFill=0;entryX=0.019;entryY=0.999;entryDx=0;entryDy=0;entryPerimeter=0;" parent="1" source="cykdBwdM0Bds0NIfHY12-360" target="cykdBwdM0Bds0NIfHY12-11" edge="1">
          <mxGeometry width="50" height="50" relative="1" as="geometry">
            <mxPoint x="310" y="745" as="sourcePoint" />
            <mxPoint x="260" y="690" as="targetPoint" />
            <Array as="points">
              <mxPoint x="260" y="670" />
            </Array>
          </mxGeometry>
        </mxCell>
        <mxCell id="cykdBwdM0Bds0NIfHY12-374" value="Role" style="rounded=0;whiteSpace=wrap;html=1;strokeColor=#5B9BD5;fontColor=#5B9BD5;fontStyle=1;verticalAlign=middle;align=left;spacingLeft=3;" parent="1" vertex="1">
          <mxGeometry x="827" y="655" width="653" height="30" as="geometry" />
        </mxCell>
        <mxCell id="cykdBwdM0Bds0NIfHY12-375" value="" style="rounded=0;whiteSpace=wrap;html=1;strokeColor=#5B9BD5;fillColor=#f5f5f5;fontColor=#333333;" parent="1" vertex="1">
          <mxGeometry x="827" y="685" width="653" height="85" as="geometry" />
        </mxCell>
        <mxCell id="cykdBwdM0Bds0NIfHY12-376" value="" style="endArrow=classic;html=1;rounded=0;entryX=0;entryY=0.5;entryDx=0;entryDy=0;exitX=1;exitY=0.5;exitDx=0;exitDy=0;strokeColor=#000000;" parent="1" source="cykdBwdM0Bds0NIfHY12-31" target="cykdBwdM0Bds0NIfHY12-200" edge="1">
          <mxGeometry width="50" height="50" relative="1" as="geometry">
            <mxPoint x="560" y="340" as="sourcePoint" />
            <mxPoint x="610" y="290" as="targetPoint" />
          </mxGeometry>
        </mxCell>
        <mxCell id="cykdBwdM0Bds0NIfHY12-378" style="edgeStyle=orthogonalEdgeStyle;rounded=0;orthogonalLoop=1;jettySize=auto;html=1;exitX=1;exitY=0.5;exitDx=0;exitDy=0;entryX=0;entryY=0.5;entryDx=0;entryDy=0;strokeColor=#000000;" parent="1" source="cykdBwdM0Bds0NIfHY12-37" target="cykdBwdM0Bds0NIfHY12-201" edge="1">
          <mxGeometry relative="1" as="geometry" />
        </mxCell>
        <mxCell id="cykdBwdM0Bds0NIfHY12-379" style="edgeStyle=orthogonalEdgeStyle;rounded=0;orthogonalLoop=1;jettySize=auto;html=1;exitX=1;exitY=0.5;exitDx=0;exitDy=0;entryX=0;entryY=0.5;entryDx=0;entryDy=0;strokeColor=#000000;" parent="1" source="cykdBwdM0Bds0NIfHY12-43" target="cykdBwdM0Bds0NIfHY12-202" edge="1">
          <mxGeometry relative="1" as="geometry" />
        </mxCell>
        <mxCell id="cykdBwdM0Bds0NIfHY12-380" style="edgeStyle=orthogonalEdgeStyle;rounded=0;orthogonalLoop=1;jettySize=auto;html=1;exitX=1;exitY=0.5;exitDx=0;exitDy=0;entryX=0;entryY=0.5;entryDx=0;entryDy=0;strokeColor=#000000;" parent="1" source="cykdBwdM0Bds0NIfHY12-49" target="cykdBwdM0Bds0NIfHY12-203" edge="1">
          <mxGeometry relative="1" as="geometry" />
        </mxCell>
        <mxCell id="cykdBwdM0Bds0NIfHY12-381" style="edgeStyle=orthogonalEdgeStyle;rounded=0;orthogonalLoop=1;jettySize=auto;html=1;exitX=1;exitY=0.5;exitDx=0;exitDy=0;entryX=0;entryY=0.5;entryDx=0;entryDy=0;strokeColor=#000000;" parent="1" source="cykdBwdM0Bds0NIfHY12-55" target="cykdBwdM0Bds0NIfHY12-204" edge="1">
          <mxGeometry relative="1" as="geometry" />
        </mxCell>
        <mxCell id="cykdBwdM0Bds0NIfHY12-382" style="edgeStyle=orthogonalEdgeStyle;rounded=0;orthogonalLoop=1;jettySize=auto;html=1;exitX=1;exitY=0.5;exitDx=0;exitDy=0;entryX=0;entryY=0.5;entryDx=0;entryDy=0;strokeColor=#000000;" parent="1" source="cykdBwdM0Bds0NIfHY12-61" target="cykdBwdM0Bds0NIfHY12-205" edge="1">
          <mxGeometry relative="1" as="geometry" />
        </mxCell>
        <mxCell id="cykdBwdM0Bds0NIfHY12-383" style="edgeStyle=orthogonalEdgeStyle;rounded=0;orthogonalLoop=1;jettySize=auto;html=1;exitX=1;exitY=0.5;exitDx=0;exitDy=0;entryX=0;entryY=0.5;entryDx=0;entryDy=0;strokeColor=#000000;" parent="1" source="cykdBwdM0Bds0NIfHY12-67" target="cykdBwdM0Bds0NIfHY12-206" edge="1">
          <mxGeometry relative="1" as="geometry" />
        </mxCell>
        <mxCell id="cykdBwdM0Bds0NIfHY12-384" value="" style="endArrow=oval;html=1;rounded=0;exitX=1;exitY=0.5;exitDx=0;exitDy=0;entryX=0;entryY=0.5;entryDx=0;entryDy=0;startArrow=oval;startFill=1;endFill=1;strokeColor=#7030A0;fontColor=#7030A0;labelBorderColor=#7030A0;spacingBottom=3;labelBackgroundColor=none;fontSize=17;" parent="1" source="cykdBwdM0Bds0NIfHY12-6" target="cykdBwdM0Bds0NIfHY12-31" edge="1">
          <mxGeometry width="50" height="50" relative="1" as="geometry">
            <mxPoint x="205" y="101" as="sourcePoint" />
            <mxPoint x="270" y="101" as="targetPoint" />
          </mxGeometry>
        </mxCell>
        <mxCell id="cykdBwdM0Bds0NIfHY12-385" value="&amp;nbsp;T&amp;nbsp;" style="edgeLabel;html=1;align=center;verticalAlign=middle;resizable=0;points=[];fontSize=15;fontColor=#FFFFFF;labelBorderColor=#7030A0;labelBackgroundColor=#7030A0;spacingBottom=5;spacingLeft=3;spacingRight=3;" parent="cykdBwdM0Bds0NIfHY12-384" vertex="1" connectable="0">
          <mxGeometry x="0.0012" y="-2" relative="1" as="geometry">
            <mxPoint as="offset" />
          </mxGeometry>
        </mxCell>
        <mxCell id="cykdBwdM0Bds0NIfHY12-386" style="edgeStyle=orthogonalEdgeStyle;rounded=0;orthogonalLoop=1;jettySize=auto;html=1;exitX=1;exitY=0.5;exitDx=0;exitDy=0;entryX=0;entryY=0.5;entryDx=0;entryDy=0;" parent="1" source="cykdBwdM0Bds0NIfHY12-73" target="cykdBwdM0Bds0NIfHY12-207" edge="1">
          <mxGeometry relative="1" as="geometry" />
        </mxCell>
        <mxCell id="cykdBwdM0Bds0NIfHY12-387" style="edgeStyle=orthogonalEdgeStyle;rounded=0;orthogonalLoop=1;jettySize=auto;html=1;exitX=1;exitY=0.5;exitDx=0;exitDy=0;entryX=0;entryY=0.5;entryDx=0;entryDy=0;" parent="1" source="cykdBwdM0Bds0NIfHY12-79" target="6jSW1wxHa4UhFju4t9YE-31" edge="1">
          <mxGeometry relative="1" as="geometry">
            <mxPoint x="820" y="361" as="targetPoint" />
          </mxGeometry>
        </mxCell>
        <mxCell id="cykdBwdM0Bds0NIfHY12-388" style="edgeStyle=orthogonalEdgeStyle;rounded=0;orthogonalLoop=1;jettySize=auto;html=1;exitX=1;exitY=0.5;exitDx=0;exitDy=0;entryX=0;entryY=0.5;entryDx=0;entryDy=0;" parent="1" source="cykdBwdM0Bds0NIfHY12-85" target="cykdBwdM0Bds0NIfHY12-209" edge="1">
          <mxGeometry relative="1" as="geometry" />
        </mxCell>
        <mxCell id="cykdBwdM0Bds0NIfHY12-389" style="edgeStyle=orthogonalEdgeStyle;rounded=0;orthogonalLoop=1;jettySize=auto;html=1;exitX=1;exitY=0.5;exitDx=0;exitDy=0;entryX=0;entryY=0.5;entryDx=0;entryDy=0;" parent="1" source="cykdBwdM0Bds0NIfHY12-91" target="cykdBwdM0Bds0NIfHY12-210" edge="1">
          <mxGeometry relative="1" as="geometry" />
        </mxCell>
        <mxCell id="cykdBwdM0Bds0NIfHY12-390" style="edgeStyle=orthogonalEdgeStyle;rounded=0;orthogonalLoop=1;jettySize=auto;html=1;exitX=1;exitY=0.5;exitDx=0;exitDy=0;" parent="1" source="cykdBwdM0Bds0NIfHY12-97" target="cykdBwdM0Bds0NIfHY12-211" edge="1">
          <mxGeometry relative="1" as="geometry" />
        </mxCell>
        <mxCell id="cykdBwdM0Bds0NIfHY12-391" style="edgeStyle=orthogonalEdgeStyle;rounded=0;orthogonalLoop=1;jettySize=auto;html=1;exitX=1;exitY=0.5;exitDx=0;exitDy=0;entryX=0;entryY=0.5;entryDx=0;entryDy=0;" parent="1" source="cykdBwdM0Bds0NIfHY12-103" target="cykdBwdM0Bds0NIfHY12-212" edge="1">
          <mxGeometry relative="1" as="geometry" />
        </mxCell>
        <mxCell id="cykdBwdM0Bds0NIfHY12-398" value="urn:ivbs:params:scim:schemas:extension:artus:1.0:Permission" style="rounded=0;whiteSpace=wrap;html=1;strokeColor=#9673a6;fillColor=#e1d5e7;align=left;spacingLeft=3;" parent="1" vertex="1">
          <mxGeometry x="842.504" y="695" width="354.33" height="30" as="geometry" />
        </mxCell>
        <mxCell id="cykdBwdM0Bds0NIfHY12-400" style="edgeStyle=orthogonalEdgeStyle;rounded=0;orthogonalLoop=1;jettySize=auto;html=1;exitX=1;exitY=0.5;exitDx=0;exitDy=0;entryX=0;entryY=0.5;entryDx=0;entryDy=0;" parent="1" source="cykdBwdM0Bds0NIfHY12-363" target="cykdBwdM0Bds0NIfHY12-398" edge="1">
          <mxGeometry relative="1" as="geometry">
            <mxPoint x="710" y="516" as="sourcePoint" />
            <mxPoint x="810" y="710" as="targetPoint" />
          </mxGeometry>
        </mxCell>
        <mxCell id="6jSW1wxHa4UhFju4t9YE-1" value="First Name" style="rounded=0;whiteSpace=wrap;html=1;strokeColor=#FFFFFF;fillColor=#7030A0;fontColor=#FFFFFF;align=left;spacingLeft=3;" parent="1" vertex="1">
          <mxGeometry x="14.873999999999995" y="286.09000000000003" width="180" height="30" as="geometry" />
        </mxCell>
        <mxCell id="6jSW1wxHa4UhFju4t9YE-2" value="Email Address" style="rounded=0;whiteSpace=wrap;html=1;strokeColor=#FFFFFF;fillColor=#7030A0;fontColor=#FFFFFF;align=left;spacingLeft=3;" parent="1" vertex="1">
          <mxGeometry x="14.873999999999995" y="316.09000000000003" width="180" height="30" as="geometry" />
        </mxCell>
        <mxCell id="cykdBwdM0Bds0NIfHY12-132" value="" style="endArrow=oval;html=1;rounded=0;exitX=1;exitY=0.5;exitDx=0;exitDy=0;entryX=0;entryY=0.5;entryDx=0;entryDy=0;startArrow=oval;startFill=1;endFill=1;strokeColor=#7030A0;" parent="1" source="6jSW1wxHa4UhFju4t9YE-2" target="cykdBwdM0Bds0NIfHY12-73" edge="1">
          <mxGeometry width="50" height="50" relative="1" as="geometry">
            <mxPoint x="194.87400000000002" y="331.0899999999999" as="sourcePoint" />
            <mxPoint x="307" y="311" as="targetPoint" />
          </mxGeometry>
        </mxCell>
        <mxCell id="6jSW1wxHa4UhFju4t9YE-3" value="" style="endArrow=oval;html=1;rounded=0;exitX=1;exitY=0.5;exitDx=0;exitDy=0;entryX=0;entryY=0.5;entryDx=0;entryDy=0;startArrow=oval;startFill=1;endFill=1;strokeColor=#7030A0;" parent="1" source="6jSW1wxHa4UhFju4t9YE-1" target="cykdBwdM0Bds0NIfHY12-67" edge="1">
          <mxGeometry width="50" height="50" relative="1" as="geometry">
            <mxPoint x="205" y="341" as="sourcePoint" />
            <mxPoint x="270" y="341" as="targetPoint" />
          </mxGeometry>
        </mxCell>
        <mxCell id="6jSW1wxHa4UhFju4t9YE-4" value="@rtus Organization" style="rounded=0;whiteSpace=wrap;html=1;strokeColor=#5B9BD5;fontColor=#5B9BD5;fontStyle=1;verticalAlign=middle;align=left;spacingLeft=3;" parent="1" vertex="1">
          <mxGeometry x="300" y="529" width="440" height="30" as="geometry" />
        </mxCell>
        <mxCell id="6jSW1wxHa4UhFju4t9YE-5" value="" style="rounded=0;whiteSpace=wrap;html=1;strokeColor=#5B9BD5;fillColor=#f5f5f5;fontColor=#333333;" parent="1" vertex="1">
          <mxGeometry x="300" y="559" width="440" height="78" as="geometry" />
        </mxCell>
        <mxCell id="6jSW1wxHa4UhFju4t9YE-6" value="" style="shape=table;startSize=0;container=1;collapsible=0;childLayout=tableLayout;fillColor=#5B9BD5;strokeColor=#5B9BD5;fontColor=#FFFFFF;spacingRight=3;spacingLeft=3;" parent="1" vertex="1">
          <mxGeometry x="310" y="569" width="420" height="60" as="geometry" />
        </mxCell>
        <mxCell id="6jSW1wxHa4UhFju4t9YE-7" style="shape=tableRow;horizontal=0;startSize=0;swimlaneHead=0;swimlaneBody=0;strokeColor=inherit;top=0;left=0;bottom=0;right=0;collapsible=0;dropTarget=0;fillColor=none;points=[[0,0.5],[1,0.5]];portConstraint=eastwest;fontColor=#FFFFFF;" parent="6jSW1wxHa4UhFju4t9YE-6" vertex="1">
          <mxGeometry width="420" height="30" as="geometry" />
        </mxCell>
        <mxCell id="6jSW1wxHa4UhFju4t9YE-8" value="2" style="shape=partialRectangle;html=1;whiteSpace=wrap;connectable=0;strokeColor=inherit;overflow=hidden;fillColor=none;top=0;left=0;bottom=0;right=0;pointerEvents=1;align=right;spacingLeft=3;fontColor=#FFFFFF;" parent="6jSW1wxHa4UhFju4t9YE-7" vertex="1">
          <mxGeometry width="22" height="30" as="geometry">
            <mxRectangle width="22" height="30" as="alternateBounds" />
          </mxGeometry>
        </mxCell>
        <mxCell id="6jSW1wxHa4UhFju4t9YE-9" value="Id" style="shape=partialRectangle;html=1;whiteSpace=wrap;connectable=0;strokeColor=inherit;overflow=hidden;fillColor=none;top=0;left=0;bottom=0;right=0;pointerEvents=1;align=left;spacingLeft=3;fontColor=#FFFFFF;" parent="6jSW1wxHa4UhFju4t9YE-7" vertex="1">
          <mxGeometry x="22" width="104" height="30" as="geometry">
            <mxRectangle width="104" height="30" as="alternateBounds" />
          </mxGeometry>
        </mxCell>
        <mxCell id="6jSW1wxHa4UhFju4t9YE-10" value="UD_ARTx_ORL_SID" style="shape=partialRectangle;html=1;whiteSpace=wrap;connectable=0;strokeColor=inherit;overflow=hidden;fillColor=none;top=0;left=0;bottom=0;right=0;pointerEvents=1;align=left;spacingLeft=3;fontColor=#FFFFFF;" parent="6jSW1wxHa4UhFju4t9YE-7" vertex="1">
          <mxGeometry x="126" width="190" height="30" as="geometry">
            <mxRectangle width="190" height="30" as="alternateBounds" />
          </mxGeometry>
        </mxCell>
        <mxCell id="6jSW1wxHa4UhFju4t9YE-11" value="String" style="shape=partialRectangle;html=1;whiteSpace=wrap;connectable=0;strokeColor=inherit;overflow=hidden;fillColor=none;top=0;left=0;bottom=0;right=0;pointerEvents=1;align=left;spacingLeft=3;fontColor=#FFFFFF;" parent="6jSW1wxHa4UhFju4t9YE-7" vertex="1">
          <mxGeometry x="316" width="55" height="30" as="geometry">
            <mxRectangle width="55" height="30" as="alternateBounds" />
          </mxGeometry>
        </mxCell>
        <mxCell id="6jSW1wxHa4UhFju4t9YE-12" value="64" style="shape=partialRectangle;whiteSpace=wrap;connectable=0;strokeColor=inherit;overflow=hidden;fillColor=none;top=0;left=0;bottom=0;right=0;pointerEvents=1;align=right;spacingLeft=3;fontColor=#FFFFFF;spacingRight=3;" parent="6jSW1wxHa4UhFju4t9YE-7" vertex="1">
          <mxGeometry x="371" width="49" height="30" as="geometry">
            <mxRectangle width="49" height="30" as="alternateBounds" />
          </mxGeometry>
        </mxCell>
        <mxCell id="6jSW1wxHa4UhFju4t9YE-23" style="shape=tableRow;horizontal=0;startSize=0;swimlaneHead=0;swimlaneBody=0;strokeColor=inherit;top=0;left=0;bottom=0;right=0;collapsible=0;dropTarget=0;fillColor=none;points=[[0,0.5],[1,0.5]];portConstraint=eastwest;fontColor=#FFFFFF;" parent="6jSW1wxHa4UhFju4t9YE-6" vertex="1">
          <mxGeometry y="30" width="420" height="30" as="geometry" />
        </mxCell>
        <mxCell id="6jSW1wxHa4UhFju4t9YE-24" value="4" style="shape=partialRectangle;html=1;whiteSpace=wrap;connectable=0;strokeColor=inherit;overflow=hidden;fillColor=none;top=0;left=0;bottom=0;right=0;pointerEvents=1;align=right;spacingLeft=3;fontColor=#FFFFFF;" parent="6jSW1wxHa4UhFju4t9YE-23" vertex="1">
          <mxGeometry width="22" height="30" as="geometry">
            <mxRectangle width="22" height="30" as="alternateBounds" />
          </mxGeometry>
        </mxCell>
        <mxCell id="6jSW1wxHa4UhFju4t9YE-25" value="Status" style="shape=partialRectangle;html=1;whiteSpace=wrap;connectable=0;strokeColor=inherit;overflow=hidden;fillColor=none;top=0;left=0;bottom=0;right=0;pointerEvents=1;align=left;spacingLeft=3;fontColor=#FFFFFF;" parent="6jSW1wxHa4UhFju4t9YE-23" vertex="1">
          <mxGeometry x="22" width="104" height="30" as="geometry">
            <mxRectangle width="104" height="30" as="alternateBounds" />
          </mxGeometry>
        </mxCell>
        <mxCell id="6jSW1wxHa4UhFju4t9YE-26" value="UD_ARTx_ORL_STATUS" style="shape=partialRectangle;html=1;whiteSpace=wrap;connectable=0;strokeColor=inherit;overflow=hidden;fillColor=none;top=0;left=0;bottom=0;right=0;pointerEvents=1;align=left;spacingLeft=3;fontColor=#FFFFFF;" parent="6jSW1wxHa4UhFju4t9YE-23" vertex="1">
          <mxGeometry x="126" width="190" height="30" as="geometry">
            <mxRectangle width="190" height="30" as="alternateBounds" />
          </mxGeometry>
        </mxCell>
        <mxCell id="6jSW1wxHa4UhFju4t9YE-27" value="Boolean" style="shape=partialRectangle;html=1;whiteSpace=wrap;connectable=0;strokeColor=inherit;overflow=hidden;fillColor=none;top=0;left=0;bottom=0;right=0;pointerEvents=1;align=left;spacingLeft=3;fontColor=#FFFFFF;" parent="6jSW1wxHa4UhFju4t9YE-23" vertex="1">
          <mxGeometry x="316" width="55" height="30" as="geometry">
            <mxRectangle width="55" height="30" as="alternateBounds" />
          </mxGeometry>
        </mxCell>
        <mxCell id="6jSW1wxHa4UhFju4t9YE-28" style="shape=partialRectangle;whiteSpace=wrap;connectable=0;strokeColor=inherit;overflow=hidden;fillColor=none;top=0;left=0;bottom=0;right=0;pointerEvents=1;align=right;spacingLeft=3;fontColor=#FFFFFF;spacingRight=3;" parent="6jSW1wxHa4UhFju4t9YE-23" vertex="1">
          <mxGeometry x="371" width="49" height="30" as="geometry">
            <mxRectangle width="49" height="30" as="alternateBounds" />
          </mxGeometry>
        </mxCell>
        <mxCell id="6jSW1wxHa4UhFju4t9YE-14" value="Organization" style="rounded=0;whiteSpace=wrap;html=1;strokeColor=#5B9BD5;fontColor=#5B9BD5;fontStyle=1;verticalAlign=middle;align=left;spacingLeft=3;" parent="1" vertex="1">
          <mxGeometry x="828" y="529" width="652" height="30" as="geometry" />
        </mxCell>
        <mxCell id="6jSW1wxHa4UhFju4t9YE-15" value="" style="rounded=0;whiteSpace=wrap;html=1;strokeColor=#5B9BD5;fillColor=#f5f5f5;fontColor=#333333;" parent="1" vertex="1">
          <mxGeometry x="828" y="559" width="652" height="78" as="geometry" />
        </mxCell>
        <mxCell id="6jSW1wxHa4UhFju4t9YE-16" value="urn:ivbs:params:scim:schemas:extension:artus:1.0:Organization" style="rounded=0;whiteSpace=wrap;html=1;strokeColor=#9673a6;fillColor=#e1d5e7;align=left;spacingLeft=3;" parent="1" vertex="1">
          <mxGeometry x="843.504" y="569" width="354.33" height="30" as="geometry" />
        </mxCell>
        <mxCell id="6jSW1wxHa4UhFju4t9YE-29" value="urn:ivbs:params:scim:schemas:extension:artus:1.0:Organization" style="rounded=0;whiteSpace=wrap;html=1;strokeColor=#9673a6;fillColor=#e1d5e7;align=left;spacingLeft=3;" parent="1" vertex="1">
          <mxGeometry x="843.504" y="599" width="354.33" height="30" as="geometry" />
        </mxCell>
        <mxCell id="6jSW1wxHa4UhFju4t9YE-31" value="urn:ietf:params:scim:schemas:core:2.0:User" style="rounded=0;whiteSpace=wrap;html=1;strokeColor=#82b366;fillColor=#d5e8d4;align=left;spacingLeft=3;" parent="1" vertex="1">
          <mxGeometry x="847.004" y="346.09000000000003" width="354.33" height="30" as="geometry" />
        </mxCell>
        <mxCell id="6jSW1wxHa4UhFju4t9YE-32" value="division" style="rounded=0;whiteSpace=wrap;html=1;strokeColor=#FFFF00;fillColor=#FFFFCC;fontColor=#000000;align=left;spacingLeft=3;" parent="1" vertex="1">
          <mxGeometry x="1213.004" y="436.09" width="251.968" height="30" as="geometry" />
        </mxCell>
        <mxCell id="6jSW1wxHa4UhFju4t9YE-33" value="department" style="rounded=0;whiteSpace=wrap;html=1;strokeColor=#FFFF00;fillColor=#FFFFCC;fontColor=#000000;align=left;spacingLeft=3;" parent="1" vertex="1">
          <mxGeometry x="1213.004" y="466.0899999999999" width="251.968" height="30" as="geometry" />
        </mxCell>
        <mxCell id="6jSW1wxHa4UhFju4t9YE-34" value="userName" style="rounded=0;whiteSpace=wrap;html=1;strokeColor=#FFFF00;fillColor=#FFFFCC;fontColor=#000000;align=left;spacingLeft=3;" parent="1" vertex="1">
          <mxGeometry x="1213.004" y="106.09" width="251.968" height="30" as="geometry" />
        </mxCell>
        <mxCell id="6jSW1wxHa4UhFju4t9YE-35" value="password" style="rounded=0;whiteSpace=wrap;html=1;strokeColor=#FFFF00;fillColor=#FFFFCC;fontColor=#000000;align=left;spacingLeft=3;" parent="1" vertex="1">
          <mxGeometry x="1213.004" y="136.09" width="251.968" height="30" as="geometry" />
        </mxCell>
        <mxCell id="6jSW1wxHa4UhFju4t9YE-36" value="active" style="rounded=0;whiteSpace=wrap;html=1;strokeColor=#FFFF00;fillColor=#FFFFCC;fontColor=#000000;align=left;spacingLeft=3;" parent="1" vertex="1">
          <mxGeometry x="1213.004" y="166.09" width="251.968" height="30" as="geometry" />
        </mxCell>
        <mxCell id="6jSW1wxHa4UhFju4t9YE-37" value="identifierName" style="rounded=0;whiteSpace=wrap;html=1;strokeColor=#FFFF00;fillColor=#FFFFCC;fontColor=#000000;align=left;spacingLeft=3;" parent="1" vertex="1">
          <mxGeometry x="1213.004" y="196.09" width="251.968" height="30" as="geometry" />
        </mxCell>
        <mxCell id="6jSW1wxHa4UhFju4t9YE-38" value="title" style="rounded=0;whiteSpace=wrap;html=1;strokeColor=#FFFF00;fillColor=#FFFFCC;fontColor=#000000;align=left;spacingLeft=3;" parent="1" vertex="1">
          <mxGeometry x="1213.004" y="226.09" width="251.968" height="30" as="geometry" />
        </mxCell>
        <mxCell id="6jSW1wxHa4UhFju4t9YE-39" value="name.familyName" style="rounded=0;whiteSpace=wrap;html=1;strokeColor=#FFFF00;fillColor=#FFFFCC;fontColor=#000000;align=left;spacingLeft=3;" parent="1" vertex="1">
          <mxGeometry x="1213.004" y="256.09" width="251.968" height="30" as="geometry" />
        </mxCell>
        <mxCell id="6jSW1wxHa4UhFju4t9YE-40" value="name.givenName" style="rounded=0;whiteSpace=wrap;html=1;strokeColor=#FFFF00;fillColor=#FFFFCC;fontColor=#000000;align=left;spacingLeft=3;" parent="1" vertex="1">
          <mxGeometry x="1213.004" y="286.09" width="251.968" height="30" as="geometry" />
        </mxCell>
        <mxCell id="6jSW1wxHa4UhFju4t9YE-41" value="emails[{primary=true, type=&quot;work&quot;}]" style="rounded=0;whiteSpace=wrap;html=1;strokeColor=#FFFF00;fillColor=#FFFFCC;fontColor=#000000;align=left;spacingLeft=3;" parent="1" vertex="1">
          <mxGeometry x="1213.004" y="316.09" width="251.968" height="30" as="geometry" />
        </mxCell>
        <mxCell id="6jSW1wxHa4UhFju4t9YE-42" value="urn:ietf:params:scim:schemas:core:2.0:User" style="rounded=0;whiteSpace=wrap;html=1;strokeColor=#82b366;fillColor=#d5e8d4;align=left;spacingLeft=3;" parent="1" vertex="1">
          <mxGeometry x="847" y="76.09" width="354.33" height="30" as="geometry" />
        </mxCell>
        <mxCell id="6jSW1wxHa4UhFju4t9YE-43" value="id" style="rounded=0;whiteSpace=wrap;html=1;strokeColor=#FFFF00;fillColor=#FFFFCC;fontColor=#000000;align=left;spacingLeft=3;" parent="1" vertex="1">
          <mxGeometry x="1213.004" y="76.09" width="251.968" height="30" as="geometry" />
        </mxCell>
        <mxCell id="6jSW1wxHa4UhFju4t9YE-44" value="organization.id" style="rounded=0;whiteSpace=wrap;html=1;strokeColor=#FFFF00;fillColor=#FFFFCC;fontColor=#000000;align=left;spacingLeft=3;" parent="1" vertex="1">
          <mxGeometry x="1213.004" y="569" width="251.968" height="30" as="geometry" />
        </mxCell>
        <mxCell id="6jSW1wxHa4UhFju4t9YE-45" value="organization.active" style="rounded=0;whiteSpace=wrap;html=1;strokeColor=#FFFF00;fillColor=#FFFFCC;fontColor=#000000;align=left;spacingLeft=3;" parent="1" vertex="1">
          <mxGeometry x="1213.004" y="599" width="251.968" height="30" as="geometry" />
        </mxCell>
        <mxCell id="6jSW1wxHa4UhFju4t9YE-46" value="organization.id" style="rounded=0;whiteSpace=wrap;html=1;strokeColor=#FFFF00;fillColor=#FFFFCC;fontColor=#000000;align=left;spacingLeft=3;" parent="1" vertex="1">
          <mxGeometry x="1213.004" y="695" width="251.968" height="30" as="geometry" />
        </mxCell>
        <mxCell id="6jSW1wxHa4UhFju4t9YE-47" value="phoneNumbers[{primary=true, type=&quot;work&quot;}]" style="rounded=0;whiteSpace=wrap;html=1;strokeColor=#FFFF00;fillColor=#FFFFCC;fontColor=#000000;align=left;spacingLeft=3;" parent="1" vertex="1">
          <mxGeometry x="1213.004" y="346.09000000000003" width="251.968" height="30" as="geometry" />
        </mxCell>
        <mxCell id="6jSW1wxHa4UhFju4t9YE-48" value="Telephone" style="rounded=0;whiteSpace=wrap;html=1;strokeColor=#FFFFFF;fillColor=#7030A0;fontColor=#FFFFFF;align=left;spacingLeft=3;" parent="1" vertex="1">
          <mxGeometry x="14.873999999999995" y="346.09000000000003" width="180" height="30" as="geometry" />
        </mxCell>
        <mxCell id="6jSW1wxHa4UhFju4t9YE-49" value="" style="endArrow=classic;html=1;rounded=0;entryX=1;entryY=0.5;entryDx=0;entryDy=0;exitX=0;exitY=0.5;exitDx=0;exitDy=0;strokeColor=#000000;" parent="1" source="6jSW1wxHa4UhFju4t9YE-42" target="cykdBwdM0Bds0NIfHY12-24" edge="1">
          <mxGeometry width="50" height="50" relative="1" as="geometry">
            <mxPoint x="857" y="131" as="sourcePoint" />
            <mxPoint x="740" y="131" as="targetPoint" />
          </mxGeometry>
        </mxCell>
        <mxCell id="6jSW1wxHa4UhFju4t9YE-50" value="" style="endArrow=diamondThin;html=1;rounded=0;exitX=0;exitY=0.5;exitDx=0;exitDy=0;strokeColor=#5B9BD5;startArrow=none;startFill=0;endFill=0;" parent="1" source="6jSW1wxHa4UhFju4t9YE-4" edge="1">
          <mxGeometry width="50" height="50" relative="1" as="geometry">
            <mxPoint x="320" y="660" as="sourcePoint" />
            <mxPoint x="280" y="510" as="targetPoint" />
            <Array as="points">
              <mxPoint x="280" y="544" />
            </Array>
          </mxGeometry>
        </mxCell>
        <mxCell id="6jSW1wxHa4UhFju4t9YE-63" value="urn:ivbs:params:scim:schemas:extension:artus:1.0:Permission" style="rounded=0;whiteSpace=wrap;html=1;strokeColor=#9673a6;fillColor=#e1d5e7;align=left;spacingLeft=3;" parent="1" vertex="1">
          <mxGeometry x="842.504" y="725" width="354.33" height="30" as="geometry" />
        </mxCell>
        <mxCell id="6jSW1wxHa4UhFju4t9YE-64" value="role.id" style="rounded=0;whiteSpace=wrap;html=1;strokeColor=#FFFF00;fillColor=#FFFFCC;fontColor=#000000;align=left;spacingLeft=3;" parent="1" vertex="1">
          <mxGeometry x="1213.004" y="725" width="251.968" height="30" as="geometry" />
        </mxCell>
        <mxCell id="6jSW1wxHa4UhFju4t9YE-65" value="Lookup" style="rounded=0;whiteSpace=wrap;html=1;strokeColor=#7030A0;fontColor=#7030A0;fontStyle=1;verticalAlign=middle;align=left;spacingLeft=3;" parent="1" vertex="1">
          <mxGeometry x="7" y="520" width="200" height="30" as="geometry" />
        </mxCell>
        <mxCell id="6jSW1wxHa4UhFju4t9YE-66" value="" style="rounded=0;whiteSpace=wrap;html=1;strokeColor=#7030A0;fillColor=#f5f5f5;fontColor=#333333;" parent="1" vertex="1">
          <mxGeometry x="7" y="550" width="200" height="220" as="geometry" />
        </mxCell>
        <mxCell id="6jSW1wxHa4UhFju4t9YE-67" value="@artus.Role" style="rounded=0;whiteSpace=wrap;html=1;strokeColor=#FFFF00;fillColor=#FFFFCC;fontColor=#000000;align=left;spacingLeft=3;" parent="1" vertex="1">
          <mxGeometry x="14.87" y="725" width="175.13" height="30" as="geometry" />
        </mxCell>
        <mxCell id="6jSW1wxHa4UhFju4t9YE-68" value="@artus.Organization" style="rounded=0;whiteSpace=wrap;html=1;strokeColor=#FFFF00;fillColor=#FFFFCC;fontColor=#000000;align=left;spacingLeft=3;" parent="1" vertex="1">
          <mxGeometry x="14.869999999999997" y="631" width="175.13" height="30" as="geometry" />
        </mxCell>
        <mxCell id="6jSW1wxHa4UhFju4t9YE-69" style="edgeStyle=orthogonalEdgeStyle;rounded=0;orthogonalLoop=1;jettySize=auto;html=1;exitX=1;exitY=0.5;exitDx=0;exitDy=0;endArrow=oval;endFill=1;" parent="1" source="6jSW1wxHa4UhFju4t9YE-67" target="6jSW1wxHa4UhFju4t9YE-57" edge="1">
          <mxGeometry relative="1" as="geometry">
            <mxPoint x="194.87" y="739.29" as="sourcePoint" />
            <mxPoint x="307.87" y="739.29" as="targetPoint" />
          </mxGeometry>
        </mxCell>
        <mxCell id="6jSW1wxHa4UhFju4t9YE-70" style="edgeStyle=orthogonalEdgeStyle;rounded=0;orthogonalLoop=1;jettySize=auto;html=1;exitX=1;exitY=0.5;exitDx=0;exitDy=0;endArrow=oval;endFill=1;entryX=0;entryY=0.5;entryDx=0;entryDy=0;" parent="1" source="6jSW1wxHa4UhFju4t9YE-68" target="6jSW1wxHa4UhFju4t9YE-7" edge="1">
          <mxGeometry relative="1" as="geometry">
            <mxPoint x="200" y="750" as="sourcePoint" />
            <mxPoint x="320" y="750" as="targetPoint" />
            <Array as="points">
              <mxPoint x="220" y="646" />
              <mxPoint x="220" y="584" />
            </Array>
          </mxGeometry>
        </mxCell>
        <mxCell id="6jSW1wxHa4UhFju4t9YE-71" style="edgeStyle=orthogonalEdgeStyle;rounded=0;orthogonalLoop=1;jettySize=auto;html=1;exitX=1;exitY=0.5;exitDx=0;exitDy=0;endArrow=oval;endFill=1;entryX=0;entryY=0.5;entryDx=0;entryDy=0;" parent="1" source="6jSW1wxHa4UhFju4t9YE-68" target="cykdBwdM0Bds0NIfHY12-363" edge="1">
          <mxGeometry relative="1" as="geometry">
            <mxPoint x="210" y="760" as="sourcePoint" />
            <mxPoint x="330" y="760" as="targetPoint" />
            <Array as="points">
              <mxPoint x="220" y="646" />
              <mxPoint x="220" y="710" />
            </Array>
          </mxGeometry>
        </mxCell>
        <mxCell id="6jSW1wxHa4UhFju4t9YE-72" style="rounded=0;orthogonalLoop=1;jettySize=auto;html=1;exitX=1;exitY=0.5;exitDx=0;exitDy=0;entryX=0;entryY=0.5;entryDx=0;entryDy=0;" parent="1" source="6jSW1wxHa4UhFju4t9YE-57" target="6jSW1wxHa4UhFju4t9YE-63" edge="1">
          <mxGeometry relative="1" as="geometry">
            <mxPoint x="740" y="720" as="sourcePoint" />
            <mxPoint x="840" y="741" as="targetPoint" />
          </mxGeometry>
        </mxCell>
        <mxCell id="6jSW1wxHa4UhFju4t9YE-73" style="rounded=0;orthogonalLoop=1;jettySize=auto;html=1;exitX=1;exitY=0.5;exitDx=0;exitDy=0;entryX=0;entryY=0.5;entryDx=0;entryDy=0;" parent="1" source="6jSW1wxHa4UhFju4t9YE-7" target="6jSW1wxHa4UhFju4t9YE-16" edge="1">
          <mxGeometry relative="1" as="geometry">
            <mxPoint x="740" y="720" as="sourcePoint" />
            <mxPoint x="853" y="720" as="targetPoint" />
          </mxGeometry>
        </mxCell>
        <mxCell id="6jSW1wxHa4UhFju4t9YE-74" style="rounded=0;orthogonalLoop=1;jettySize=auto;html=1;entryX=0;entryY=0.5;entryDx=0;entryDy=0;exitX=1;exitY=0.5;exitDx=0;exitDy=0;" parent="1" source="6jSW1wxHa4UhFju4t9YE-23" target="6jSW1wxHa4UhFju4t9YE-29" edge="1">
          <mxGeometry relative="1" as="geometry">
            <mxPoint x="740" y="614" as="sourcePoint" />
            <mxPoint x="844" y="613.58" as="targetPoint" />
          </mxGeometry>
        </mxCell>
      </root>
    </mxGraphModel>
  </diagram>
  <diagram id="-3epSQjXOjXqxw670nPy" name="@rtus Formular">
    <mxGraphModel dx="1420" dy="-37" grid="1" gridSize="10" guides="1" tooltips="1" connect="1" arrows="1" fold="1" page="1" pageScale="1" pageWidth="1169" pageHeight="827" math="0" shadow="0">
      <root>
        <mxCell id="0" />
        <mxCell id="1" parent="0" />
        <mxCell id="inlszF1YrQIbjWRIglU9-1" value="" style="rounded=0;whiteSpace=wrap;html=1;" parent="1" vertex="1">
          <mxGeometry x="348" y="890" width="155.51149999999998" height="29.9212" as="geometry" />
        </mxCell>
        <mxCell id="inlszF1YrQIbjWRIglU9-2" value="Hierarchy" style="text;strokeColor=none;align=right;fillColor=none;html=1;verticalAlign=middle;whiteSpace=wrap;rounded=0;" parent="1" vertex="1">
          <mxGeometry x="250" y="890" width="90.551" height="29.9212" as="geometry" />
        </mxCell>
        <mxCell id="inlszF1YrQIbjWRIglU9-3" value="" style="rounded=0;whiteSpace=wrap;html=1;" parent="1" vertex="1">
          <mxGeometry x="622" y="890" width="155.51149999999998" height="29.9212" as="geometry" />
        </mxCell>
        <mxCell id="inlszF1YrQIbjWRIglU9-4" value="Identifier" style="text;strokeColor=none;align=right;fillColor=none;html=1;verticalAlign=middle;whiteSpace=wrap;rounded=0;" parent="1" vertex="1">
          <mxGeometry x="522" y="890" width="91.55" height="29.92" as="geometry" />
        </mxCell>
        <mxCell id="inlszF1YrQIbjWRIglU9-5" value="" style="rounded=0;whiteSpace=wrap;html=1;" parent="1" vertex="1">
          <mxGeometry x="348" y="930" width="155.51149999999998" height="29.9212" as="geometry" />
        </mxCell>
        <mxCell id="inlszF1YrQIbjWRIglU9-6" value="Login Name" style="text;strokeColor=none;align=right;fillColor=none;html=1;verticalAlign=middle;whiteSpace=wrap;rounded=0;" parent="1" vertex="1">
          <mxGeometry x="250" y="930" width="90.551" height="29.9212" as="geometry" />
        </mxCell>
        <mxCell id="inlszF1YrQIbjWRIglU9-7" value="" style="rounded=0;whiteSpace=wrap;html=1;" parent="1" vertex="1">
          <mxGeometry x="622" y="930" width="155.51149999999998" height="29.9212" as="geometry" />
        </mxCell>
        <mxCell id="inlszF1YrQIbjWRIglU9-8" value="Unified Login" style="text;strokeColor=none;align=right;fillColor=none;html=1;verticalAlign=middle;whiteSpace=wrap;rounded=0;" parent="1" vertex="1">
          <mxGeometry x="512" y="930" width="101.55" height="29.92" as="geometry" />
        </mxCell>
        <mxCell id="inlszF1YrQIbjWRIglU9-9" value="" style="rounded=0;whiteSpace=wrap;html=1;" parent="1" vertex="1">
          <mxGeometry x="348" y="970" width="155.51149999999998" height="29.9212" as="geometry" />
        </mxCell>
        <mxCell id="inlszF1YrQIbjWRIglU9-10" value="Password" style="text;strokeColor=none;align=right;fillColor=none;html=1;verticalAlign=middle;whiteSpace=wrap;rounded=0;" parent="1" vertex="1">
          <mxGeometry x="250" y="970" width="90.551" height="29.9212" as="geometry" />
        </mxCell>
        <mxCell id="inlszF1YrQIbjWRIglU9-11" value="" style="rounded=0;whiteSpace=wrap;html=1;" parent="1" vertex="1">
          <mxGeometry x="622" y="970" width="155.51149999999998" height="29.9212" as="geometry" />
        </mxCell>
        <mxCell id="inlszF1YrQIbjWRIglU9-12" value="Anonymous Login" style="text;strokeColor=none;align=right;fillColor=none;html=1;verticalAlign=middle;whiteSpace=wrap;rounded=0;" parent="1" vertex="1">
          <mxGeometry x="512" y="970" width="101.55" height="29.92" as="geometry" />
        </mxCell>
        <mxCell id="inlszF1YrQIbjWRIglU9-13" value="" style="rounded=0;whiteSpace=wrap;html=1;" parent="1" vertex="1">
          <mxGeometry x="348" y="1010" width="155.51149999999998" height="29.9212" as="geometry" />
        </mxCell>
        <mxCell id="inlszF1YrQIbjWRIglU9-14" value="Common Name" style="text;strokeColor=none;align=right;fillColor=none;html=1;verticalAlign=middle;whiteSpace=wrap;rounded=0;" parent="1" vertex="1">
          <mxGeometry x="250" y="1010" width="90.551" height="29.9212" as="geometry" />
        </mxCell>
        <mxCell id="inlszF1YrQIbjWRIglU9-15" value="" style="rounded=0;whiteSpace=wrap;html=1;" parent="1" vertex="1">
          <mxGeometry x="622" y="1010" width="155.51149999999998" height="29.9212" as="geometry" />
        </mxCell>
        <mxCell id="inlszF1YrQIbjWRIglU9-16" value="e-Mail" style="text;strokeColor=none;align=right;fillColor=none;html=1;verticalAlign=middle;whiteSpace=wrap;rounded=0;" parent="1" vertex="1">
          <mxGeometry x="512" y="1010" width="101.55" height="29.92" as="geometry" />
        </mxCell>
        <mxCell id="inlszF1YrQIbjWRIglU9-17" value="" style="rounded=0;whiteSpace=wrap;html=1;" parent="1" vertex="1">
          <mxGeometry x="348" y="1050" width="155.51149999999998" height="29.9212" as="geometry" />
        </mxCell>
        <mxCell id="inlszF1YrQIbjWRIglU9-18" value="Principal Name" style="text;strokeColor=none;align=right;fillColor=none;html=1;verticalAlign=middle;whiteSpace=wrap;rounded=0;" parent="1" vertex="1">
          <mxGeometry x="250" y="1050" width="90.551" height="29.9212" as="geometry" />
        </mxCell>
        <mxCell id="inlszF1YrQIbjWRIglU9-19" value="" style="rounded=0;whiteSpace=wrap;html=1;" parent="1" vertex="1">
          <mxGeometry x="622" y="1050" width="155.51149999999998" height="29.9212" as="geometry" />
        </mxCell>
        <mxCell id="inlszF1YrQIbjWRIglU9-20" value="Telephone" style="text;strokeColor=none;align=right;fillColor=none;html=1;verticalAlign=middle;whiteSpace=wrap;rounded=0;" parent="1" vertex="1">
          <mxGeometry x="512" y="1050" width="101.55" height="29.92" as="geometry" />
        </mxCell>
        <mxCell id="inlszF1YrQIbjWRIglU9-21" value="" style="rounded=0;whiteSpace=wrap;html=1;" parent="1" vertex="1">
          <mxGeometry x="348" y="1090" width="155.51149999999998" height="29.9212" as="geometry" />
        </mxCell>
        <mxCell id="inlszF1YrQIbjWRIglU9-22" value="Title" style="text;strokeColor=none;align=right;fillColor=none;html=1;verticalAlign=middle;whiteSpace=wrap;rounded=0;" parent="1" vertex="1">
          <mxGeometry x="250" y="1090" width="90.551" height="29.9212" as="geometry" />
        </mxCell>
        <mxCell id="inlszF1YrQIbjWRIglU9-23" value="" style="rounded=0;whiteSpace=wrap;html=1;" parent="1" vertex="1">
          <mxGeometry x="622" y="1090" width="155.51149999999998" height="29.9212" as="geometry" />
        </mxCell>
        <mxCell id="inlszF1YrQIbjWRIglU9-24" value="Language" style="text;strokeColor=none;align=right;fillColor=none;html=1;verticalAlign=middle;whiteSpace=wrap;rounded=0;" parent="1" vertex="1">
          <mxGeometry x="512" y="1090" width="101.55" height="29.92" as="geometry" />
        </mxCell>
        <mxCell id="inlszF1YrQIbjWRIglU9-25" value="" style="rounded=0;whiteSpace=wrap;html=1;" parent="1" vertex="1">
          <mxGeometry x="348" y="1130" width="155.51149999999998" height="29.9212" as="geometry" />
        </mxCell>
        <mxCell id="inlszF1YrQIbjWRIglU9-26" value="Last Name" style="text;strokeColor=none;align=right;fillColor=none;html=1;verticalAlign=middle;whiteSpace=wrap;rounded=0;" parent="1" vertex="1">
          <mxGeometry x="250" y="1130" width="90.551" height="29.9212" as="geometry" />
        </mxCell>
        <mxCell id="inlszF1YrQIbjWRIglU9-27" value="" style="rounded=0;whiteSpace=wrap;html=1;" parent="1" vertex="1">
          <mxGeometry x="622" y="1130" width="155.51149999999998" height="29.9212" as="geometry" />
        </mxCell>
        <mxCell id="inlszF1YrQIbjWRIglU9-28" value="Participant" style="text;strokeColor=none;align=right;fillColor=none;html=1;verticalAlign=middle;whiteSpace=wrap;rounded=0;" parent="1" vertex="1">
          <mxGeometry x="512" y="1130" width="101.55" height="29.92" as="geometry" />
        </mxCell>
        <mxCell id="inlszF1YrQIbjWRIglU9-29" value="" style="rounded=0;whiteSpace=wrap;html=1;" parent="1" vertex="1">
          <mxGeometry x="348" y="1170" width="155.51149999999998" height="29.9212" as="geometry" />
        </mxCell>
        <mxCell id="inlszF1YrQIbjWRIglU9-30" value="First Name" style="text;strokeColor=none;align=right;fillColor=none;html=1;verticalAlign=middle;whiteSpace=wrap;rounded=0;" parent="1" vertex="1">
          <mxGeometry x="250" y="1170" width="90.551" height="29.9212" as="geometry" />
        </mxCell>
        <mxCell id="inlszF1YrQIbjWRIglU9-31" value="" style="rounded=0;whiteSpace=wrap;html=1;" parent="1" vertex="1">
          <mxGeometry x="622" y="1170" width="155.51149999999998" height="29.9212" as="geometry" />
        </mxCell>
        <mxCell id="inlszF1YrQIbjWRIglU9-32" value="Organisation" style="text;strokeColor=none;align=right;fillColor=none;html=1;verticalAlign=middle;whiteSpace=wrap;rounded=0;" parent="1" vertex="1">
          <mxGeometry x="512" y="1170" width="101.55" height="29.92" as="geometry" />
        </mxCell>
        <mxCell id="inlszF1YrQIbjWRIglU9-33" value="" style="rounded=0;whiteSpace=wrap;html=1;" parent="1" vertex="1">
          <mxGeometry x="348" y="1210" width="155.51149999999998" height="29.9212" as="geometry" />
        </mxCell>
        <mxCell id="inlszF1YrQIbjWRIglU9-34" value="Middle Name" style="text;strokeColor=none;align=right;fillColor=none;html=1;verticalAlign=middle;whiteSpace=wrap;rounded=0;" parent="1" vertex="1">
          <mxGeometry x="250" y="1210" width="90.551" height="29.9212" as="geometry" />
        </mxCell>
        <mxCell id="inlszF1YrQIbjWRIglU9-35" value="" style="rounded=0;whiteSpace=wrap;html=1;" parent="1" vertex="1">
          <mxGeometry x="622" y="1210" width="155.51149999999998" height="29.9212" as="geometry" />
        </mxCell>
        <mxCell id="inlszF1YrQIbjWRIglU9-36" value="Division" style="text;strokeColor=none;align=right;fillColor=none;html=1;verticalAlign=middle;whiteSpace=wrap;rounded=0;" parent="1" vertex="1">
          <mxGeometry x="512" y="1210" width="101.55" height="29.92" as="geometry" />
        </mxCell>
        <mxCell id="inlszF1YrQIbjWRIglU9-37" value="Department" style="text;strokeColor=none;align=right;fillColor=none;html=1;verticalAlign=middle;whiteSpace=wrap;rounded=0;" parent="1" vertex="1">
          <mxGeometry x="512" y="1250" width="101.55" height="29.92" as="geometry" />
        </mxCell>
        <mxCell id="inlszF1YrQIbjWRIglU9-38" value="" style="rounded=0;whiteSpace=wrap;html=1;" parent="1" vertex="1">
          <mxGeometry x="622" y="1250" width="155.51149999999998" height="29.9212" as="geometry" />
        </mxCell>
        <mxCell id="inlszF1YrQIbjWRIglU9-39" value="" style="rounded=0;whiteSpace=wrap;html=1;" parent="1" vertex="1">
          <mxGeometry x="348" y="1250" width="155.51149999999998" height="29.9212" as="geometry" />
        </mxCell>
        <mxCell id="inlszF1YrQIbjWRIglU9-40" value="Locality" style="text;strokeColor=none;align=right;fillColor=none;html=1;verticalAlign=middle;whiteSpace=wrap;rounded=0;" parent="1" vertex="1">
          <mxGeometry x="248" y="1250" width="91.55" height="29.92" as="geometry" />
        </mxCell>
      </root>
    </mxGraphModel>
  </diagram>
  <diagram id="niPFyNfpf_VjA-5liORY" name="Staging">
    <mxGraphModel dx="1420" dy="790" grid="1" gridSize="10" guides="1" tooltips="1" connect="1" arrows="1" fold="1" page="1" pageScale="1" pageWidth="1169" pageHeight="827" math="0" shadow="0">
      <root>
        <mxCell id="0" />
        <mxCell id="1" parent="0" />
      </root>
    </mxGraphModel>
  </diagram>
</mxfile>
